<?xml version="1.0" encoding="UTF-8" standalone="no"?>
<!DOCTYPE svg PUBLIC "-//W3C//DTD SVG 1.1//EN"
 "http://www.w3.org/Graphics/SVG/1.1/DTD/svg11.dtd">
<!-- Generated by graphviz version 2.26.3 (20100126.1600)
 -->
<!-- Title: controllers_diagram Pages: 1 -->
<svg width="1149pt" height="680pt"
 viewBox="0.00 0.00 1148.61 680.01" xmlns="http://www.w3.org/2000/svg" xmlns:xlink="http://www.w3.org/1999/xlink">
<g id="graph1" class="graph" transform="scale(1 1) rotate(0) translate(4 676.011)">
<title>controllers_diagram</title>
<polygon fill="white" stroke="white" points="-4,5 -4,-676.011 1145.61,-676.011 1145.61,5 -4,5"/>
<!-- _diagram_info -->
<g id="node1" class="node"><title>_diagram_info</title>
<text text-anchor="start" x="828" y="-61.3" font-family="Times Roman,serif" font-size="13.00">Controllers diagram</text>
<text text-anchor="start" x="828" y="-44.3" font-family="Times Roman,serif" font-size="13.00">Date: Jun 20 2013 &#45; 09:28</text>
<text text-anchor="start" x="828" y="-27.3" font-family="Times Roman,serif" font-size="13.00">Generated by RailRoady 1.1.0</text>
<text text-anchor="start" x="828" y="-10.3" font-family="Times Roman,serif" font-size="13.00">http://railroady.prestonlee.com</text>
</g>
<!-- AlrtsController -->
<g id="node2" class="node"><title>AlrtsController</title>
<ellipse fill="none" stroke="black" cx="109.483" cy="-401.281" rx="82.939" ry="18.3848"/>
<text text-anchor="middle" x="109.483" y="-397.681" font-family="Times Roman,serif" font-size="14.00">AlrtsController</text>
</g>
<!-- AlrMntrCntrsController -->
<g id="node3" class="node"><title>AlrMntrCntrsController</title>
<ellipse fill="none" stroke="black" cx="821.284" cy="-397.955" rx="123.951" ry="18.3848"/>
<text text-anchor="middle" x="821.284" y="-394.355" font-family="Times Roman,serif" font-size="14.00">AlrMntrCntrsController</text>
</g>
<!-- LaynetElesController -->
<g id="node4" class="node"><title>LaynetElesController</title>
<ellipse fill="none" stroke="black" cx="362.567" cy="-175.257" rx="113.844" ry="18.3848"/>
<text text-anchor="middle" x="362.567" y="-171.657" font-family="Times Roman,serif" font-size="14.00">LaynetElesController</text>
</g>
<!-- ApplicationController -->
<g id="node5" class="node"><title>ApplicationController</title>
<ellipse fill="none" stroke="black" cx="572.965" cy="-330.701" rx="113.844" ry="18.3848"/>
<text text-anchor="middle" x="572.965" y="-327.101" font-family="Times Roman,serif" font-size="14.00">ApplicationController</text>
</g>
<!-- ApplicationController&#45;&gt;AlrtsController -->
<g id="edge2" class="edge"><title>ApplicationController&#45;&gt;AlrtsController</title>
<path fill="none" stroke="black" d="M489.569,-343.401C400.566,-356.954 261.199,-378.177 178.249,-390.809"/>
</g>
<!-- ApplicationController&#45;&gt;AlrMntrCntrsController -->
<g id="edge4" class="edge"><title>ApplicationController&#45;&gt;AlrMntrCntrsController</title>
<path fill="none" stroke="black" d="M631.813,-346.639C670.824,-357.205 721.859,-371.027 761.133,-381.664"/>
</g>
<!-- ApplicationController&#45;&gt;LaynetElesController -->
<g id="edge6" class="edge"><title>ApplicationController&#45;&gt;LaynetElesController</title>
<path fill="none" stroke="black" d="M548.418,-312.565C507.985,-282.693 427.827,-223.471 387.283,-193.518"/>
</g>
<!-- McrAtrsController -->
<g id="node6" class="node"><title>McrAtrsController</title>
<ellipse fill="none" stroke="black" cx="621.847" cy="-481.036" rx="97.7889" ry="18.3848"/>
<text text-anchor="middle" x="621.847" y="-477.436" font-family="Times Roman,serif" font-size="14.00">McrAtrsController</text>
</g>
<!-- ApplicationController&#45;&gt;McrAtrsController -->
<g id="edge8" class="edge"><title>ApplicationController&#45;&gt;McrAtrsController</title>
<path fill="none" stroke="black" d="M579.057,-349.437C588.475,-378.403 606.46,-433.714 615.831,-462.536"/>
</g>
<!-- AlrMntrFrmlsController -->
<g id="node7" class="node"><title>AlrMntrFrmlsController</title>
<ellipse fill="none" stroke="black" cx="352.284" cy="-629.757" rx="123.243" ry="18.3848"/>
<text text-anchor="middle" x="352.284" y="-626.157" font-family="Times Roman,serif" font-size="14.00">AlrMntrFrmlsController</text>
</g>
<!-- ApplicationController&#45;&gt;AlrMntrFrmlsController -->
<g id="edge10" class="edge"><title>ApplicationController&#45;&gt;AlrMntrFrmlsController</title>
<path fill="none" stroke="black" d="M559.161,-349.408C519.529,-403.115 405.708,-557.359 366.084,-611.057"/>
</g>
<!-- ServsController -->
<g id="node8" class="node"><title>ServsController</title>
<ellipse fill="none" stroke="black" cx="104.073" cy="-171.431" rx="87.1802" ry="18.3848"/>
<text text-anchor="middle" x="104.073" y="-167.831" font-family="Times Roman,serif" font-size="14.00">ServsController</text>
</g>
<!-- ApplicationController&#45;&gt;ServsController -->
<g id="edge12" class="edge"><title>ApplicationController&#45;&gt;ServsController</title>
<path fill="none" stroke="black" d="M523.672,-313.957C432.559,-283.009 239.014,-217.267 150.276,-187.125"/>
</g>
<!-- ManRscsController -->
<g id="node9" class="node"><title>ManRscsController</title>
<ellipse fill="none" stroke="black" cx="1037.11" cy="-220.29" rx="102.03" ry="18.3848"/>
<text text-anchor="middle" x="1037.11" y="-216.69" font-family="Times Roman,serif" font-size="14.00">ManRscsController</text>
</g>
<!-- ApplicationController&#45;&gt;ManRscsController -->
<g id="edge14" class="edge"><title>ApplicationController&#45;&gt;ManRscsController</title>
<path fill="none" stroke="black" d="M637.502,-315.349C726.801,-294.106 886.963,-256.007 974.971,-235.071"/>
</g>
<!-- AtrHstsController -->
<g id="node10" class="node"><title>AtrHstsController</title>
<ellipse fill="none" stroke="black" cx="376.347" cy="-408.883" rx="96.8736" ry="18.3848"/>
<text text-anchor="middle" x="376.347" y="-405.283" font-family="Times Roman,serif" font-size="14.00">AtrHstsController</text>
</g>
<!-- ApplicationController&#45;&gt;AtrHstsController -->
<g id="edge16" class="edge"><title>ApplicationController&#45;&gt;AtrHstsController</title>
<path fill="none" stroke="black" d="M529.816,-347.858C496.695,-361.029 451.223,-379.11 418.382,-392.168"/>
</g>
<!-- StaticController -->
<g id="node11" class="node"><title>StaticController</title>
<ellipse fill="none" stroke="black" cx="782.894" cy="-165.177" rx="87.889" ry="18.3848"/>
<text text-anchor="middle" x="782.894" y="-161.577" font-family="Times Roman,serif" font-size="14.00">StaticController</text>
</g>
<!-- ApplicationController&#45;&gt;StaticController -->
<g id="edge18" class="edge"><title>ApplicationController&#45;&gt;StaticController</title>
<path fill="none" stroke="black" d="M596.233,-312.354C636.799,-280.369 719.97,-214.79 760.159,-183.102"/>
</g>
<!-- AlrMntrRngsController -->
<g id="node12" class="node"><title>AlrMntrRngsController</title>
<ellipse fill="none" stroke="black" cx="570.835" cy="-145.5" rx="121.122" ry="18.3848"/>
<text text-anchor="middle" x="570.835" y="-141.9" font-family="Times Roman,serif" font-size="14.00">AlrMntrRngsController</text>
</g>
<!-- ApplicationController&#45;&gt;AlrMntrRngsController -->
<g id="edge20" class="edge"><title>ApplicationController&#45;&gt;AlrMntrRngsController</title>
<path fill="none" stroke="black" d="M572.749,-311.924C572.34,-276.335 571.456,-199.465 571.049,-164.052"/>
</g>
<!-- UploadsController -->
<g id="node13" class="node"><title>UploadsController</title>
<ellipse fill="none" stroke="black" cx="100" cy="-632.177" rx="98.9949" ry="18.3848"/>
<text text-anchor="middle" x="100" y="-628.577" font-family="Times Roman,serif" font-size="14.00">UploadsController</text>
</g>
<!-- ApplicationController&#45;&gt;UploadsController -->
<g id="edge22" class="edge"><title>ApplicationController&#45;&gt;UploadsController</title>
<path fill="none" stroke="black" d="M551.815,-348.979C532.39,-365.424 502.52,-389.862 474.947,-408.943 353.312,-493.115 199.11,-578.748 132.773,-614.65"/>
</g>
<!-- LinksController -->
<g id="node14" class="node"><title>LinksController</title>
<ellipse fill="none" stroke="black" cx="1037.57" cy="-581.337" rx="85.7684" ry="18.3848"/>
<text text-anchor="middle" x="1037.57" y="-577.737" font-family="Times Roman,serif" font-size="14.00">LinksController</text>
</g>
<!-- ApplicationController&#45;&gt;LinksController -->
<g id="edge24" class="edge"><title>ApplicationController&#45;&gt;LinksController</title>
<path fill="none" stroke="black" d="M605.222,-348.465C629.947,-362.058 664.933,-381.239 695.685,-397.909 809.086,-459.381 944.139,-531.527 1004.99,-563.979"/>
</g>
<!-- NetElesController -->
<g id="node15" class="node"><title>NetElesController</title>
<ellipse fill="none" stroke="black" cx="784.373" cy="-645.916" rx="97.0803" ry="18.3848"/>
<text text-anchor="middle" x="784.373" y="-642.316" font-family="Times Roman,serif" font-size="14.00">NetElesController</text>
</g>
<!-- ApplicationController&#45;&gt;NetElesController -->
<g id="edge26" class="edge"><title>ApplicationController&#45;&gt;NetElesController</title>
<path fill="none" stroke="black" d="M596.346,-348.998C628.451,-375.193 686.204,-426.301 721.447,-481.058 752.534,-529.36 771.839,-595.344 779.945,-627.197"/>
</g>
<!-- AtrsController -->
<g id="node16" class="node"><title>AtrsController</title>
<ellipse fill="none" stroke="black" cx="552.792" cy="-652.511" rx="80.1095" ry="18.3848"/>
<text text-anchor="middle" x="552.792" y="-648.911" font-family="Times Roman,serif" font-size="14.00">AtrsController</text>
</g>
<!-- ApplicationController&#45;&gt;AtrsController -->
<g id="edge28" class="edge"><title>ApplicationController&#45;&gt;AtrsController</title>
<path fill="none" stroke="black" d="M563.186,-349.507C549.514,-377.348 525.941,-431.577 522.247,-481.014 518.044,-537.259 536.176,-602.573 546.331,-633.89"/>
</g>
</g>
</svg>
