<?xml version="1.0" encoding="UTF-8" standalone="no"?>
<!DOCTYPE svg PUBLIC "-//W3C//DTD SVG 1.1//EN"
 "http://www.w3.org/Graphics/SVG/1.1/DTD/svg11.dtd">
<!-- Generated by graphviz version 2.26.3 (20100126.1600)
 -->
<!-- Title: controllers_diagram Pages: 1 -->
<svg width="1168pt" height="1228pt"
 viewBox="0.00 0.00 1168.00 1227.90" xmlns="http://www.w3.org/2000/svg" xmlns:xlink="http://www.w3.org/1999/xlink">
<g id="graph1" class="graph" transform="scale(1 1) rotate(0) translate(4 1223.9)">
<title>controllers_diagram</title>
<polygon fill="white" stroke="white" points="-4,5 -4,-1223.9 1165,-1223.9 1165,5 -4,5"/>
<!-- _diagram_info -->
<g id="node1" class="node"><title>_diagram_info</title>
<text text-anchor="start" x="957" y="-140.3" font-family="Times Roman,serif" font-size="13.00">Controllers diagram</text>
<text text-anchor="start" x="957" y="-123.3" font-family="Times Roman,serif" font-size="13.00">Date: Jun 20 2013 &#45; 09:27</text>
<text text-anchor="start" x="957" y="-106.3" font-family="Times Roman,serif" font-size="13.00">Generated by RailRoady 1.1.0</text>
<text text-anchor="start" x="957" y="-89.3" font-family="Times Roman,serif" font-size="13.00">http://railroady.prestonlee.com</text>
</g>
<!-- AlrtsController -->
<g id="node2" class="node"><title>AlrtsController</title>
<polyline fill="none" stroke="black" points="13,-515.849 107,-515.849 "/>
<path fill="none" stroke="black" d="M107,-515.849C113,-515.849 119,-521.849 119,-527.849"/>
<polyline fill="none" stroke="black" points="119,-527.849 119,-713.849 "/>
<path fill="none" stroke="black" d="M119,-713.849C119,-719.849 113,-725.849 107,-725.849"/>
<polyline fill="none" stroke="black" points="107,-725.849 13,-725.849 "/>
<path fill="none" stroke="black" d="M13,-725.849C7,-725.849 1,-719.849 1,-713.849"/>
<polyline fill="none" stroke="black" points="1,-713.849 1,-527.849 "/>
<path fill="none" stroke="black" d="M1,-527.849C1,-521.849 7,-515.849 13,-515.849"/>
<text text-anchor="middle" x="60" y="-709.249" font-family="Times Roman,serif" font-size="14.00">AlrtsController</text>
<polyline fill="none" stroke="black" points="1,-699.849 119,-699.849 "/>
<text text-anchor="start" x="9" y="-683.249" font-family="Times Roman,serif" font-size="14.00">create</text>
<text text-anchor="start" x="9" y="-665.249" font-family="Times Roman,serif" font-size="14.00">destroy</text>
<text text-anchor="start" x="9" y="-647.249" font-family="Times Roman,serif" font-size="14.00">edit</text>
<text text-anchor="start" x="9" y="-629.249" font-family="Times Roman,serif" font-size="14.00">index</text>
<text text-anchor="start" x="9" y="-611.249" font-family="Times Roman,serif" font-size="14.00">new</text>
<text text-anchor="start" x="9" y="-593.249" font-family="Times Roman,serif" font-size="14.00">show</text>
<text text-anchor="start" x="9" y="-575.249" font-family="Times Roman,serif" font-size="14.00">update</text>
<polyline fill="none" stroke="black" points="1,-565.849 119,-565.849 "/>
<polyline fill="none" stroke="black" points="1,-541.849 119,-541.849 "/>
<text text-anchor="start" x="9" y="-525.249" font-family="Times Roman,serif" font-size="14.00">_layout</text>
</g>
<!-- AlrMntrCntrsController -->
<g id="node3" class="node"><title>AlrMntrCntrsController</title>
<polyline fill="none" stroke="black" points="473.433,-484.011 625.433,-484.011 "/>
<path fill="none" stroke="black" d="M625.433,-484.011C631.433,-484.011 637.433,-490.011 637.433,-496.011"/>
<polyline fill="none" stroke="black" points="637.433,-496.011 637.433,-700.011 "/>
<path fill="none" stroke="black" d="M637.433,-700.011C637.433,-706.011 631.433,-712.011 625.433,-712.011"/>
<polyline fill="none" stroke="black" points="625.433,-712.011 473.433,-712.011 "/>
<path fill="none" stroke="black" d="M473.433,-712.011C467.433,-712.011 461.433,-706.011 461.433,-700.011"/>
<polyline fill="none" stroke="black" points="461.433,-700.011 461.433,-496.011 "/>
<path fill="none" stroke="black" d="M461.433,-496.011C461.433,-490.011 467.433,-484.011 473.433,-484.011"/>
<text text-anchor="middle" x="549.433" y="-695.411" font-family="Times Roman,serif" font-size="14.00">AlrMntrCntrsController</text>
<polyline fill="none" stroke="black" points="461.433,-686.011 637.433,-686.011 "/>
<text text-anchor="start" x="469.433" y="-669.411" font-family="Times Roman,serif" font-size="14.00">create</text>
<text text-anchor="start" x="469.433" y="-651.411" font-family="Times Roman,serif" font-size="14.00">destroy</text>
<text text-anchor="start" x="469.433" y="-633.411" font-family="Times Roman,serif" font-size="14.00">edit</text>
<text text-anchor="start" x="469.433" y="-615.411" font-family="Times Roman,serif" font-size="14.00">index</text>
<text text-anchor="start" x="469.433" y="-597.411" font-family="Times Roman,serif" font-size="14.00">new</text>
<text text-anchor="start" x="469.433" y="-579.411" font-family="Times Roman,serif" font-size="14.00">show</text>
<text text-anchor="start" x="469.433" y="-561.411" font-family="Times Roman,serif" font-size="14.00">state</text>
<text text-anchor="start" x="469.433" y="-543.411" font-family="Times Roman,serif" font-size="14.00">update</text>
<polyline fill="none" stroke="black" points="461.433,-534.011 637.433,-534.011 "/>
<polyline fill="none" stroke="black" points="461.433,-510.011 637.433,-510.011 "/>
<text text-anchor="start" x="469.433" y="-493.411" font-family="Times Roman,serif" font-size="14.00">_layout</text>
</g>
<!-- LaynetElesController -->
<g id="node4" class="node"><title>LaynetElesController</title>
<polyline fill="none" stroke="black" points="40.0412,-1.5 177.041,-1.5 "/>
<path fill="none" stroke="black" d="M177.041,-1.5C183.041,-1.5 189.041,-7.5 189.041,-13.5"/>
<polyline fill="none" stroke="black" points="189.041,-13.5 189.041,-235.5 "/>
<path fill="none" stroke="black" d="M189.041,-235.5C189.041,-241.5 183.041,-247.5 177.041,-247.5"/>
<polyline fill="none" stroke="black" points="177.041,-247.5 40.0412,-247.5 "/>
<path fill="none" stroke="black" d="M40.0412,-247.5C34.0412,-247.5 28.0412,-241.5 28.0412,-235.5"/>
<polyline fill="none" stroke="black" points="28.0412,-235.5 28.0412,-13.5 "/>
<path fill="none" stroke="black" d="M28.0412,-13.5C28.0412,-7.5 34.0412,-1.5 40.0412,-1.5"/>
<text text-anchor="middle" x="108.541" y="-230.9" font-family="Times Roman,serif" font-size="14.00">LaynetElesController</text>
<polyline fill="none" stroke="black" points="28.0412,-221.5 189.041,-221.5 "/>
<text text-anchor="start" x="36.0412" y="-204.9" font-family="Times Roman,serif" font-size="14.00">create</text>
<text text-anchor="start" x="36.0412" y="-186.9" font-family="Times Roman,serif" font-size="14.00">destroy</text>
<text text-anchor="start" x="36.0412" y="-168.9" font-family="Times Roman,serif" font-size="14.00">edit</text>
<text text-anchor="start" x="36.0412" y="-150.9" font-family="Times Roman,serif" font-size="14.00">index</text>
<text text-anchor="start" x="36.0412" y="-132.9" font-family="Times Roman,serif" font-size="14.00">is_port_open?</text>
<text text-anchor="start" x="36.0412" y="-114.9" font-family="Times Roman,serif" font-size="14.00">new</text>
<text text-anchor="start" x="36.0412" y="-96.9" font-family="Times Roman,serif" font-size="14.00">show</text>
<text text-anchor="start" x="36.0412" y="-78.9" font-family="Times Roman,serif" font-size="14.00">testconn</text>
<text text-anchor="start" x="36.0412" y="-60.9" font-family="Times Roman,serif" font-size="14.00">update</text>
<polyline fill="none" stroke="black" points="28.0412,-51.5 189.041,-51.5 "/>
<polyline fill="none" stroke="black" points="28.0412,-27.5 189.041,-27.5 "/>
<text text-anchor="start" x="36.0412" y="-10.9" font-family="Times Roman,serif" font-size="14.00">_layout</text>
</g>
<!-- ApplicationController -->
<g id="node5" class="node"><title>ApplicationController</title>
<polyline fill="none" stroke="black" points="199.137,-564.332 413.137,-564.332 "/>
<path fill="none" stroke="black" d="M413.137,-564.332C419.137,-564.332 425.137,-570.332 425.137,-576.332"/>
<polyline fill="none" stroke="black" points="425.137,-576.332 425.137,-654.332 "/>
<path fill="none" stroke="black" d="M425.137,-654.332C425.137,-660.332 419.137,-666.332 413.137,-666.332"/>
<polyline fill="none" stroke="black" points="413.137,-666.332 199.137,-666.332 "/>
<path fill="none" stroke="black" d="M199.137,-666.332C193.137,-666.332 187.137,-660.332 187.137,-654.332"/>
<polyline fill="none" stroke="black" points="187.137,-654.332 187.137,-576.332 "/>
<path fill="none" stroke="black" d="M187.137,-576.332C187.137,-570.332 193.137,-564.332 199.137,-564.332"/>
<text text-anchor="middle" x="306.137" y="-649.732" font-family="Times Roman,serif" font-size="14.00">ApplicationController</text>
<polyline fill="none" stroke="black" points="187.137,-640.332 425.137,-640.332 "/>
<text text-anchor="start" x="195.137" y="-623.732" font-family="Times Roman,serif" font-size="14.00">_one_time_conditions_valid_12?</text>
<polyline fill="none" stroke="black" points="187.137,-614.332 425.137,-614.332 "/>
<polyline fill="none" stroke="black" points="187.137,-590.332 425.137,-590.332 "/>
<text text-anchor="start" x="195.137" y="-573.732" font-family="Times Roman,serif" font-size="14.00">_layout</text>
</g>
<!-- ApplicationController&#45;&gt;AlrtsController -->
<g id="edge2" class="edge"><title>ApplicationController&#45;&gt;AlrtsController</title>
<path fill="none" stroke="black" d="M187.034,-618.002C163.474,-618.53 139.72,-619.062 119.23,-619.522"/>
</g>
<!-- ApplicationController&#45;&gt;AlrMntrCntrsController -->
<g id="edge4" class="edge"><title>ApplicationController&#45;&gt;AlrMntrCntrsController</title>
<path fill="none" stroke="black" d="M425.29,-606.849C437.451,-605.983 449.644,-605.115 461.385,-604.279"/>
</g>
<!-- ApplicationController&#45;&gt;LaynetElesController -->
<g id="edge6" class="edge"><title>ApplicationController&#45;&gt;LaynetElesController</title>
<path fill="none" stroke="black" d="M291.864,-564.264C271.295,-493.269 230.439,-361.403 182.182,-254.314 181.17,-252.069 180.133,-249.813 179.072,-247.548"/>
</g>
<!-- McrAtrsController -->
<g id="node6" class="node"><title>McrAtrsController</title>
<polyline fill="none" stroke="black" points="404.927,-738.791 519.927,-738.791 "/>
<path fill="none" stroke="black" d="M519.927,-738.791C525.927,-738.791 531.927,-744.791 531.927,-750.791"/>
<polyline fill="none" stroke="black" points="531.927,-750.791 531.927,-936.791 "/>
<path fill="none" stroke="black" d="M531.927,-936.791C531.927,-942.791 525.927,-948.791 519.927,-948.791"/>
<polyline fill="none" stroke="black" points="519.927,-948.791 404.927,-948.791 "/>
<path fill="none" stroke="black" d="M404.927,-948.791C398.927,-948.791 392.927,-942.791 392.927,-936.791"/>
<polyline fill="none" stroke="black" points="392.927,-936.791 392.927,-750.791 "/>
<path fill="none" stroke="black" d="M392.927,-750.791C392.927,-744.791 398.927,-738.791 404.927,-738.791"/>
<text text-anchor="middle" x="462.427" y="-932.191" font-family="Times Roman,serif" font-size="14.00">McrAtrsController</text>
<polyline fill="none" stroke="black" points="392.927,-922.791 531.927,-922.791 "/>
<text text-anchor="start" x="400.927" y="-906.191" font-family="Times Roman,serif" font-size="14.00">create</text>
<text text-anchor="start" x="400.927" y="-888.191" font-family="Times Roman,serif" font-size="14.00">destroy</text>
<text text-anchor="start" x="400.927" y="-870.191" font-family="Times Roman,serif" font-size="14.00">edit</text>
<text text-anchor="start" x="400.927" y="-852.191" font-family="Times Roman,serif" font-size="14.00">index</text>
<text text-anchor="start" x="400.927" y="-834.191" font-family="Times Roman,serif" font-size="14.00">new</text>
<text text-anchor="start" x="400.927" y="-816.191" font-family="Times Roman,serif" font-size="14.00">show</text>
<text text-anchor="start" x="400.927" y="-798.191" font-family="Times Roman,serif" font-size="14.00">update</text>
<polyline fill="none" stroke="black" points="392.927,-788.791 531.927,-788.791 "/>
<polyline fill="none" stroke="black" points="392.927,-764.791 531.927,-764.791 "/>
<text text-anchor="start" x="400.927" y="-748.191" font-family="Times Roman,serif" font-size="14.00">_layout</text>
</g>
<!-- ApplicationController&#45;&gt;McrAtrsController -->
<g id="edge8" class="edge"><title>ApplicationController&#45;&gt;McrAtrsController</title>
<path fill="none" stroke="black" d="M341.211,-666.603C356.511,-688.967 375.014,-716.015 392.907,-742.169"/>
</g>
<!-- AlrMntrFrmlsController -->
<g id="node7" class="node"><title>AlrMntrFrmlsController</title>
<polyline fill="none" stroke="black" points="25.9432,-980.467 176.943,-980.467 "/>
<path fill="none" stroke="black" d="M176.943,-980.467C182.943,-980.467 188.943,-986.467 188.943,-992.467"/>
<polyline fill="none" stroke="black" points="188.943,-992.467 188.943,-1196.47 "/>
<path fill="none" stroke="black" d="M188.943,-1196.47C188.943,-1202.47 182.943,-1208.47 176.943,-1208.47"/>
<polyline fill="none" stroke="black" points="176.943,-1208.47 25.9432,-1208.47 "/>
<path fill="none" stroke="black" d="M25.9432,-1208.47C19.9432,-1208.47 13.9432,-1202.47 13.9432,-1196.47"/>
<polyline fill="none" stroke="black" points="13.9432,-1196.47 13.9432,-992.467 "/>
<path fill="none" stroke="black" d="M13.9432,-992.467C13.9432,-986.467 19.9432,-980.467 25.9432,-980.467"/>
<text text-anchor="middle" x="101.443" y="-1191.87" font-family="Times Roman,serif" font-size="14.00">AlrMntrFrmlsController</text>
<polyline fill="none" stroke="black" points="13.9432,-1182.47 188.943,-1182.47 "/>
<text text-anchor="start" x="21.9432" y="-1165.87" font-family="Times Roman,serif" font-size="14.00">create</text>
<text text-anchor="start" x="21.9432" y="-1147.87" font-family="Times Roman,serif" font-size="14.00">destroy</text>
<text text-anchor="start" x="21.9432" y="-1129.87" font-family="Times Roman,serif" font-size="14.00">edit</text>
<text text-anchor="start" x="21.9432" y="-1111.87" font-family="Times Roman,serif" font-size="14.00">index</text>
<text text-anchor="start" x="21.9432" y="-1093.87" font-family="Times Roman,serif" font-size="14.00">new</text>
<text text-anchor="start" x="21.9432" y="-1075.87" font-family="Times Roman,serif" font-size="14.00">show</text>
<text text-anchor="start" x="21.9432" y="-1057.87" font-family="Times Roman,serif" font-size="14.00">state</text>
<text text-anchor="start" x="21.9432" y="-1039.87" font-family="Times Roman,serif" font-size="14.00">update</text>
<polyline fill="none" stroke="black" points="13.9432,-1030.47 188.943,-1030.47 "/>
<polyline fill="none" stroke="black" points="13.9432,-1006.47 188.943,-1006.47 "/>
<text text-anchor="start" x="21.9432" y="-989.867" font-family="Times Roman,serif" font-size="14.00">_layout</text>
</g>
<!-- ApplicationController&#45;&gt;AlrMntrFrmlsController -->
<g id="edge10" class="edge"><title>ApplicationController&#45;&gt;AlrMntrFrmlsController</title>
<path fill="none" stroke="black" d="M293.739,-666.548C277.837,-728.479 247.515,-835.131 207.896,-921.305 198.904,-940.863 188.153,-960.932 176.992,-980.159"/>
</g>
<!-- ServsController -->
<g id="node8" class="node"><title>ServsController</title>
<polyline fill="none" stroke="black" points="66.9816,-257.514 166.982,-257.514 "/>
<path fill="none" stroke="black" d="M166.982,-257.514C172.982,-257.514 178.982,-263.514 178.982,-269.514"/>
<polyline fill="none" stroke="black" points="178.982,-269.514 178.982,-491.514 "/>
<path fill="none" stroke="black" d="M178.982,-491.514C178.982,-497.514 172.982,-503.514 166.982,-503.514"/>
<polyline fill="none" stroke="black" points="166.982,-503.514 66.9816,-503.514 "/>
<path fill="none" stroke="black" d="M66.9816,-503.514C60.9816,-503.514 54.9816,-497.514 54.9816,-491.514"/>
<polyline fill="none" stroke="black" points="54.9816,-491.514 54.9816,-269.514 "/>
<path fill="none" stroke="black" d="M54.9816,-269.514C54.9816,-263.514 60.9816,-257.514 66.9816,-257.514"/>
<text text-anchor="middle" x="116.982" y="-486.914" font-family="Times Roman,serif" font-size="14.00">ServsController</text>
<polyline fill="none" stroke="black" points="54.9816,-477.514 178.982,-477.514 "/>
<text text-anchor="start" x="62.9816" y="-460.914" font-family="Times Roman,serif" font-size="14.00">create</text>
<text text-anchor="start" x="62.9816" y="-442.914" font-family="Times Roman,serif" font-size="14.00">destroy</text>
<text text-anchor="start" x="62.9816" y="-424.914" font-family="Times Roman,serif" font-size="14.00">edit</text>
<text text-anchor="start" x="62.9816" y="-406.914" font-family="Times Roman,serif" font-size="14.00">index</text>
<text text-anchor="start" x="62.9816" y="-388.914" font-family="Times Roman,serif" font-size="14.00">is_port_open?</text>
<text text-anchor="start" x="62.9816" y="-370.914" font-family="Times Roman,serif" font-size="14.00">new</text>
<text text-anchor="start" x="62.9816" y="-352.914" font-family="Times Roman,serif" font-size="14.00">show</text>
<text text-anchor="start" x="62.9816" y="-334.914" font-family="Times Roman,serif" font-size="14.00">testconn</text>
<text text-anchor="start" x="62.9816" y="-316.914" font-family="Times Roman,serif" font-size="14.00">update</text>
<polyline fill="none" stroke="black" points="54.9816,-307.514 178.982,-307.514 "/>
<polyline fill="none" stroke="black" points="54.9816,-283.514 178.982,-283.514 "/>
<text text-anchor="start" x="62.9816" y="-266.914" font-family="Times Roman,serif" font-size="14.00">_layout</text>
</g>
<!-- ApplicationController&#45;&gt;ServsController -->
<g id="edge12" class="edge"><title>ApplicationController&#45;&gt;ServsController</title>
<path fill="none" stroke="black" d="M264.86,-564.09C239.749,-532.918 207.195,-492.505 179.026,-457.536"/>
</g>
<!-- ManRscsController -->
<g id="node9" class="node"><title>ManRscsController</title>
<polyline fill="none" stroke="black" points="686.439,-316.677 807.439,-316.677 "/>
<path fill="none" stroke="black" d="M807.439,-316.677C813.439,-316.677 819.439,-322.677 819.439,-328.677"/>
<polyline fill="none" stroke="black" points="819.439,-328.677 819.439,-550.677 "/>
<path fill="none" stroke="black" d="M819.439,-550.677C819.439,-556.677 813.439,-562.677 807.439,-562.677"/>
<polyline fill="none" stroke="black" points="807.439,-562.677 686.439,-562.677 "/>
<path fill="none" stroke="black" d="M686.439,-562.677C680.439,-562.677 674.439,-556.677 674.439,-550.677"/>
<polyline fill="none" stroke="black" points="674.439,-550.677 674.439,-328.677 "/>
<path fill="none" stroke="black" d="M674.439,-328.677C674.439,-322.677 680.439,-316.677 686.439,-316.677"/>
<text text-anchor="middle" x="746.939" y="-546.077" font-family="Times Roman,serif" font-size="14.00">ManRscsController</text>
<polyline fill="none" stroke="black" points="674.439,-536.677 819.439,-536.677 "/>
<text text-anchor="start" x="682.439" y="-520.077" font-family="Times Roman,serif" font-size="14.00">alrtable</text>
<text text-anchor="start" x="682.439" y="-502.077" font-family="Times Roman,serif" font-size="14.00">create</text>
<text text-anchor="start" x="682.439" y="-484.077" font-family="Times Roman,serif" font-size="14.00">destroy</text>
<text text-anchor="start" x="682.439" y="-466.077" font-family="Times Roman,serif" font-size="14.00">edit</text>
<text text-anchor="start" x="682.439" y="-448.077" font-family="Times Roman,serif" font-size="14.00">index</text>
<text text-anchor="start" x="682.439" y="-430.077" font-family="Times Roman,serif" font-size="14.00">mngable</text>
<text text-anchor="start" x="682.439" y="-412.077" font-family="Times Roman,serif" font-size="14.00">new</text>
<text text-anchor="start" x="682.439" y="-394.077" font-family="Times Roman,serif" font-size="14.00">show</text>
<text text-anchor="start" x="682.439" y="-376.077" font-family="Times Roman,serif" font-size="14.00">update</text>
<polyline fill="none" stroke="black" points="674.439,-366.677 819.439,-366.677 "/>
<polyline fill="none" stroke="black" points="674.439,-342.677 819.439,-342.677 "/>
<text text-anchor="start" x="682.439" y="-326.077" font-family="Times Roman,serif" font-size="14.00">_layout</text>
</g>
<!-- ApplicationController&#45;&gt;ManRscsController -->
<g id="edge14" class="edge"><title>ApplicationController&#45;&gt;ManRscsController</title>
<path fill="none" stroke="black" d="M348.471,-564.016C376.298,-534.184 415.398,-498.987 458.233,-480.811 467.636,-476.821 493.908,-478.391 504.054,-477.21 561.481,-470.526 626.162,-460.402 674.329,-452.353"/>
</g>
<!-- AtrHstsController -->
<g id="node10" class="node"><title>AtrHstsController</title>
<polyline fill="none" stroke="black" points="375.854,-264.01 488.854,-264.01 "/>
<path fill="none" stroke="black" d="M488.854,-264.01C494.854,-264.01 500.854,-270.01 500.854,-276.01"/>
<polyline fill="none" stroke="black" points="500.854,-276.01 500.854,-462.01 "/>
<path fill="none" stroke="black" d="M500.854,-462.01C500.854,-468.01 494.854,-474.01 488.854,-474.01"/>
<polyline fill="none" stroke="black" points="488.854,-474.01 375.854,-474.01 "/>
<path fill="none" stroke="black" d="M375.854,-474.01C369.854,-474.01 363.854,-468.01 363.854,-462.01"/>
<polyline fill="none" stroke="black" points="363.854,-462.01 363.854,-276.01 "/>
<path fill="none" stroke="black" d="M363.854,-276.01C363.854,-270.01 369.854,-264.01 375.854,-264.01"/>
<text text-anchor="middle" x="432.354" y="-457.41" font-family="Times Roman,serif" font-size="14.00">AtrHstsController</text>
<polyline fill="none" stroke="black" points="363.854,-448.01 500.854,-448.01 "/>
<text text-anchor="start" x="371.854" y="-431.41" font-family="Times Roman,serif" font-size="14.00">create</text>
<text text-anchor="start" x="371.854" y="-413.41" font-family="Times Roman,serif" font-size="14.00">destroy</text>
<text text-anchor="start" x="371.854" y="-395.41" font-family="Times Roman,serif" font-size="14.00">edit</text>
<text text-anchor="start" x="371.854" y="-377.41" font-family="Times Roman,serif" font-size="14.00">index</text>
<text text-anchor="start" x="371.854" y="-359.41" font-family="Times Roman,serif" font-size="14.00">new</text>
<text text-anchor="start" x="371.854" y="-341.41" font-family="Times Roman,serif" font-size="14.00">show</text>
<text text-anchor="start" x="371.854" y="-323.41" font-family="Times Roman,serif" font-size="14.00">update</text>
<polyline fill="none" stroke="black" points="363.854,-314.01 500.854,-314.01 "/>
<polyline fill="none" stroke="black" points="363.854,-290.01 500.854,-290.01 "/>
<text text-anchor="start" x="371.854" y="-273.41" font-family="Times Roman,serif" font-size="14.00">_layout</text>
</g>
<!-- ApplicationController&#45;&gt;AtrHstsController -->
<g id="edge16" class="edge"><title>ApplicationController&#45;&gt;AtrHstsController</title>
<path fill="none" stroke="black" d="M332.289,-564.294C345.683,-538.154 362.507,-505.321 378.517,-474.077"/>
</g>
<!-- StaticController -->
<g id="node11" class="node"><title>StaticController</title>
<polyline fill="none" stroke="black" points="671.554,-91.5383 772.554,-91.5383 "/>
<path fill="none" stroke="black" d="M772.554,-91.5383C778.554,-91.5383 784.554,-97.5383 784.554,-103.538"/>
<polyline fill="none" stroke="black" points="784.554,-103.538 784.554,-181.538 "/>
<path fill="none" stroke="black" d="M784.554,-181.538C784.554,-187.538 778.554,-193.538 772.554,-193.538"/>
<polyline fill="none" stroke="black" points="772.554,-193.538 671.554,-193.538 "/>
<path fill="none" stroke="black" d="M671.554,-193.538C665.554,-193.538 659.554,-187.538 659.554,-181.538"/>
<polyline fill="none" stroke="black" points="659.554,-181.538 659.554,-103.538 "/>
<path fill="none" stroke="black" d="M659.554,-103.538C659.554,-97.5383 665.554,-91.5383 671.554,-91.5383"/>
<text text-anchor="middle" x="722.054" y="-176.938" font-family="Times Roman,serif" font-size="14.00">StaticController</text>
<polyline fill="none" stroke="black" points="659.554,-167.538 784.554,-167.538 "/>
<text text-anchor="start" x="667.554" y="-150.938" font-family="Times Roman,serif" font-size="14.00">index</text>
<polyline fill="none" stroke="black" points="659.554,-141.538 784.554,-141.538 "/>
<polyline fill="none" stroke="black" points="659.554,-117.538 784.554,-117.538 "/>
<text text-anchor="start" x="667.554" y="-100.938" font-family="Times Roman,serif" font-size="14.00">_layout</text>
</g>
<!-- ApplicationController&#45;&gt;StaticController -->
<g id="edge18" class="edge"><title>ApplicationController&#45;&gt;StaticController</title>
<path fill="none" stroke="black" d="M348.471,-564.016C376.298,-534.184 415.398,-498.987 458.233,-480.811 467.636,-476.821 495.272,-482.426 504.054,-477.21 612.711,-412.677 677.146,-270.409 705.254,-193.794"/>
</g>
<!-- AlrMntrRngsController -->
<g id="node12" class="node"><title>AlrMntrRngsController</title>
<polyline fill="none" stroke="black" points="341.87,-3.9128 489.87,-3.9128 "/>
<path fill="none" stroke="black" d="M489.87,-3.9128C495.87,-3.9128 501.87,-9.9128 501.87,-15.9128"/>
<polyline fill="none" stroke="black" points="501.87,-15.9128 501.87,-219.913 "/>
<path fill="none" stroke="black" d="M501.87,-219.913C501.87,-225.913 495.87,-231.913 489.87,-231.913"/>
<polyline fill="none" stroke="black" points="489.87,-231.913 341.87,-231.913 "/>
<path fill="none" stroke="black" d="M341.87,-231.913C335.87,-231.913 329.87,-225.913 329.87,-219.913"/>
<polyline fill="none" stroke="black" points="329.87,-219.913 329.87,-15.9128 "/>
<path fill="none" stroke="black" d="M329.87,-15.9128C329.87,-9.9128 335.87,-3.9128 341.87,-3.9128"/>
<text text-anchor="middle" x="415.87" y="-215.313" font-family="Times Roman,serif" font-size="14.00">AlrMntrRngsController</text>
<polyline fill="none" stroke="black" points="329.87,-205.913 501.87,-205.913 "/>
<text text-anchor="start" x="337.87" y="-189.313" font-family="Times Roman,serif" font-size="14.00">create</text>
<text text-anchor="start" x="337.87" y="-171.313" font-family="Times Roman,serif" font-size="14.00">destroy</text>
<text text-anchor="start" x="337.87" y="-153.313" font-family="Times Roman,serif" font-size="14.00">edit</text>
<text text-anchor="start" x="337.87" y="-135.313" font-family="Times Roman,serif" font-size="14.00">index</text>
<text text-anchor="start" x="337.87" y="-117.313" font-family="Times Roman,serif" font-size="14.00">new</text>
<text text-anchor="start" x="337.87" y="-99.3128" font-family="Times Roman,serif" font-size="14.00">show</text>
<text text-anchor="start" x="337.87" y="-81.3128" font-family="Times Roman,serif" font-size="14.00">state</text>
<text text-anchor="start" x="337.87" y="-63.3128" font-family="Times Roman,serif" font-size="14.00">update</text>
<polyline fill="none" stroke="black" points="329.87,-53.9128 501.87,-53.9128 "/>
<polyline fill="none" stroke="black" points="329.87,-29.9128 501.87,-29.9128 "/>
<text text-anchor="start" x="337.87" y="-13.3128" font-family="Times Roman,serif" font-size="14.00">_layout</text>
</g>
<!-- ApplicationController&#45;&gt;AlrMntrRngsController -->
<g id="edge20" class="edge"><title>ApplicationController&#45;&gt;AlrMntrRngsController</title>
<path fill="none" stroke="black" d="M310.506,-564.131C317.233,-494.563 332.408,-366.707 360.654,-260.81 363.156,-251.43 366.066,-241.82 369.219,-232.237"/>
</g>
<!-- UploadsController -->
<g id="node13" class="node"><title>UploadsController</title>
<polyline fill="none" stroke="black" points="76.6961,-780.105 192.696,-780.105 "/>
<path fill="none" stroke="black" d="M192.696,-780.105C198.696,-780.105 204.696,-786.105 204.696,-792.105"/>
<polyline fill="none" stroke="black" points="204.696,-792.105 204.696,-906.105 "/>
<path fill="none" stroke="black" d="M204.696,-906.105C204.696,-912.105 198.696,-918.105 192.696,-918.105"/>
<polyline fill="none" stroke="black" points="192.696,-918.105 76.6961,-918.105 "/>
<path fill="none" stroke="black" d="M76.6961,-918.105C70.6961,-918.105 64.6961,-912.105 64.6961,-906.105"/>
<polyline fill="none" stroke="black" points="64.6961,-906.105 64.6961,-792.105 "/>
<path fill="none" stroke="black" d="M64.6961,-792.105C64.6961,-786.105 70.6961,-780.105 76.6961,-780.105"/>
<text text-anchor="middle" x="134.696" y="-901.505" font-family="Times Roman,serif" font-size="14.00">UploadsController</text>
<polyline fill="none" stroke="black" points="64.6961,-892.105 204.696,-892.105 "/>
<text text-anchor="start" x="72.6961" y="-875.505" font-family="Times Roman,serif" font-size="14.00">destroy</text>
<text text-anchor="start" x="72.6961" y="-857.505" font-family="Times Roman,serif" font-size="14.00">load</text>
<text text-anchor="start" x="72.6961" y="-839.505" font-family="Times Roman,serif" font-size="14.00">new</text>
<polyline fill="none" stroke="black" points="64.6961,-830.105 204.696,-830.105 "/>
<polyline fill="none" stroke="black" points="64.6961,-806.105 204.696,-806.105 "/>
<text text-anchor="start" x="72.6961" y="-789.505" font-family="Times Roman,serif" font-size="14.00">_layout</text>
</g>
<!-- ApplicationController&#45;&gt;UploadsController -->
<g id="edge22" class="edge"><title>ApplicationController&#45;&gt;UploadsController</title>
<path fill="none" stroke="black" d="M268.725,-666.346C244.291,-699.663 212.082,-743.583 185.362,-780.018"/>
</g>
<!-- LinksController -->
<g id="node14" class="node"><title>LinksController</title>
<polyline fill="none" stroke="black" points="703.824,-657.581 801.824,-657.581 "/>
<path fill="none" stroke="black" d="M801.824,-657.581C807.824,-657.581 813.824,-663.581 813.824,-669.581"/>
<polyline fill="none" stroke="black" points="813.824,-669.581 813.824,-855.581 "/>
<path fill="none" stroke="black" d="M813.824,-855.581C813.824,-861.581 807.824,-867.581 801.824,-867.581"/>
<polyline fill="none" stroke="black" points="801.824,-867.581 703.824,-867.581 "/>
<path fill="none" stroke="black" d="M703.824,-867.581C697.824,-867.581 691.824,-861.581 691.824,-855.581"/>
<polyline fill="none" stroke="black" points="691.824,-855.581 691.824,-669.581 "/>
<path fill="none" stroke="black" d="M691.824,-669.581C691.824,-663.581 697.824,-657.581 703.824,-657.581"/>
<text text-anchor="middle" x="752.824" y="-850.981" font-family="Times Roman,serif" font-size="14.00">LinksController</text>
<polyline fill="none" stroke="black" points="691.824,-841.581 813.824,-841.581 "/>
<text text-anchor="start" x="699.824" y="-824.981" font-family="Times Roman,serif" font-size="14.00">create</text>
<text text-anchor="start" x="699.824" y="-806.981" font-family="Times Roman,serif" font-size="14.00">destroy</text>
<text text-anchor="start" x="699.824" y="-788.981" font-family="Times Roman,serif" font-size="14.00">index</text>
<text text-anchor="start" x="699.824" y="-770.981" font-family="Times Roman,serif" font-size="14.00">linksb</text>
<text text-anchor="start" x="699.824" y="-752.981" font-family="Times Roman,serif" font-size="14.00">new</text>
<text text-anchor="start" x="699.824" y="-734.981" font-family="Times Roman,serif" font-size="14.00">show</text>
<text text-anchor="start" x="699.824" y="-716.981" font-family="Times Roman,serif" font-size="14.00">update_linksb</text>
<polyline fill="none" stroke="black" points="691.824,-707.581 813.824,-707.581 "/>
<polyline fill="none" stroke="black" points="691.824,-683.581 813.824,-683.581 "/>
<text text-anchor="start" x="699.824" y="-666.981" font-family="Times Roman,serif" font-size="14.00">_layout</text>
</g>
<!-- ApplicationController&#45;&gt;LinksController -->
<g id="edge24" class="edge"><title>ApplicationController&#45;&gt;LinksController</title>
<path fill="none" stroke="black" d="M370.931,-666.579C396.761,-684.61 427.606,-703.323 458.233,-715.211 499.703,-731.307 618.125,-747.127 691.58,-755.796"/>
</g>
<!-- NetElesController -->
<g id="node15" class="node"><title>NetElesController</title>
<polyline fill="none" stroke="black" points="664.659,-949.507 778.659,-949.507 "/>
<path fill="none" stroke="black" d="M778.659,-949.507C784.659,-949.507 790.659,-955.507 790.659,-961.507"/>
<polyline fill="none" stroke="black" points="790.659,-961.507 790.659,-1183.51 "/>
<path fill="none" stroke="black" d="M790.659,-1183.51C790.659,-1189.51 784.659,-1195.51 778.659,-1195.51"/>
<polyline fill="none" stroke="black" points="778.659,-1195.51 664.659,-1195.51 "/>
<path fill="none" stroke="black" d="M664.659,-1195.51C658.659,-1195.51 652.659,-1189.51 652.659,-1183.51"/>
<polyline fill="none" stroke="black" points="652.659,-1183.51 652.659,-961.507 "/>
<path fill="none" stroke="black" d="M652.659,-961.507C652.659,-955.507 658.659,-949.507 664.659,-949.507"/>
<text text-anchor="middle" x="721.659" y="-1178.91" font-family="Times Roman,serif" font-size="14.00">NetElesController</text>
<polyline fill="none" stroke="black" points="652.659,-1169.51 790.659,-1169.51 "/>
<text text-anchor="start" x="660.659" y="-1152.91" font-family="Times Roman,serif" font-size="14.00">create</text>
<text text-anchor="start" x="660.659" y="-1134.91" font-family="Times Roman,serif" font-size="14.00">destroy</text>
<text text-anchor="start" x="660.659" y="-1116.91" font-family="Times Roman,serif" font-size="14.00">edit</text>
<text text-anchor="start" x="660.659" y="-1098.91" font-family="Times Roman,serif" font-size="14.00">index</text>
<text text-anchor="start" x="660.659" y="-1080.91" font-family="Times Roman,serif" font-size="14.00">is_port_open?</text>
<text text-anchor="start" x="660.659" y="-1062.91" font-family="Times Roman,serif" font-size="14.00">new</text>
<text text-anchor="start" x="660.659" y="-1044.91" font-family="Times Roman,serif" font-size="14.00">show</text>
<text text-anchor="start" x="660.659" y="-1026.91" font-family="Times Roman,serif" font-size="14.00">testconn</text>
<text text-anchor="start" x="660.659" y="-1008.91" font-family="Times Roman,serif" font-size="14.00">update</text>
<polyline fill="none" stroke="black" points="652.659,-999.507 790.659,-999.507 "/>
<polyline fill="none" stroke="black" points="652.659,-975.507 790.659,-975.507 "/>
<text text-anchor="start" x="660.659" y="-958.907" font-family="Times Roman,serif" font-size="14.00">_layout</text>
</g>
<!-- ApplicationController&#45;&gt;NetElesController -->
<g id="edge26" class="edge"><title>ApplicationController&#45;&gt;NetElesController</title>
<path fill="none" stroke="black" d="M373.852,-666.528C399.282,-683.907 429.101,-702.199 458.233,-715.211 490.514,-729.629 507.243,-713.855 535.127,-735.591 604.468,-789.643 651.79,-877.063 681.418,-949.309"/>
</g>
<!-- AtrsController -->
<g id="node16" class="node"><title>AtrsController</title>
<polyline fill="none" stroke="black" points="362.084,-972.398 452.084,-972.398 "/>
<path fill="none" stroke="black" d="M452.084,-972.398C458.084,-972.398 464.084,-978.398 464.084,-984.398"/>
<polyline fill="none" stroke="black" points="464.084,-984.398 464.084,-1206.4 "/>
<path fill="none" stroke="black" d="M464.084,-1206.4C464.084,-1212.4 458.084,-1218.4 452.084,-1218.4"/>
<polyline fill="none" stroke="black" points="452.084,-1218.4 362.084,-1218.4 "/>
<path fill="none" stroke="black" d="M362.084,-1218.4C356.084,-1218.4 350.084,-1212.4 350.084,-1206.4"/>
<polyline fill="none" stroke="black" points="350.084,-1206.4 350.084,-984.398 "/>
<path fill="none" stroke="black" d="M350.084,-984.398C350.084,-978.398 356.084,-972.398 362.084,-972.398"/>
<text text-anchor="middle" x="407.084" y="-1201.8" font-family="Times Roman,serif" font-size="14.00">AtrsController</text>
<polyline fill="none" stroke="black" points="350.084,-1192.4 464.084,-1192.4 "/>
<text text-anchor="start" x="358.084" y="-1175.8" font-family="Times Roman,serif" font-size="14.00">create</text>
<text text-anchor="start" x="358.084" y="-1157.8" font-family="Times Roman,serif" font-size="14.00">destroy</text>
<text text-anchor="start" x="358.084" y="-1139.8" font-family="Times Roman,serif" font-size="14.00">edit</text>
<text text-anchor="start" x="358.084" y="-1121.8" font-family="Times Roman,serif" font-size="14.00">index</text>
<text text-anchor="start" x="358.084" y="-1103.8" font-family="Times Roman,serif" font-size="14.00">index_com</text>
<text text-anchor="start" x="358.084" y="-1085.8" font-family="Times Roman,serif" font-size="14.00">index_sim</text>
<text text-anchor="start" x="358.084" y="-1067.8" font-family="Times Roman,serif" font-size="14.00">new</text>
<text text-anchor="start" x="358.084" y="-1049.8" font-family="Times Roman,serif" font-size="14.00">show</text>
<text text-anchor="start" x="358.084" y="-1031.8" font-family="Times Roman,serif" font-size="14.00">update</text>
<polyline fill="none" stroke="black" points="350.084,-1022.4 464.084,-1022.4 "/>
<polyline fill="none" stroke="black" points="350.084,-998.398 464.084,-998.398 "/>
<text text-anchor="start" x="358.084" y="-981.798" font-family="Times Roman,serif" font-size="14.00">_layout</text>
</g>
<!-- ApplicationController&#45;&gt;AtrsController -->
<g id="edge28" class="edge"><title>ApplicationController&#45;&gt;AtrsController</title>
<path fill="none" stroke="black" d="M316.94,-666.708C332.148,-739.03 360.336,-873.082 381.158,-972.1"/>
</g>
</g>
</svg>
