<?xml version="1.0" encoding="UTF-8" standalone="no"?>
<!DOCTYPE svg PUBLIC "-//W3C//DTD SVG 1.1//EN"
 "http://www.w3.org/Graphics/SVG/1.1/DTD/svg11.dtd">
<!-- Generated by graphviz version 2.26.3 (20100126.1600)
 -->
<!-- Title: models_diagram Pages: 1 -->
<svg width="1786pt" height="946pt"
 viewBox="0.00 0.00 1786.00 946.00" xmlns="http://www.w3.org/2000/svg" xmlns:xlink="http://www.w3.org/1999/xlink">
<g id="graph1" class="graph" transform="scale(1 1) rotate(0) translate(4 942)">
<title>models_diagram</title>
<polygon fill="white" stroke="white" points="-4,5 -4,-942 1783,-942 1783,5 -4,5"/>
<!-- _diagram_info -->
<g id="node1" class="node"><title>_diagram_info</title>
<text text-anchor="start" x="8" y="-861.3" font-family="Times Roman,serif" font-size="13.00">Models diagram</text>
<text text-anchor="start" x="8" y="-844.3" font-family="Times Roman,serif" font-size="13.00">Date: Jun 20 2013 &#45; 09:27</text>
<text text-anchor="start" x="8" y="-827.3" font-family="Times Roman,serif" font-size="13.00">Generated by RailRoady 1.1.0</text>
<text text-anchor="start" x="8" y="-810.3" font-family="Times Roman,serif" font-size="13.00">http://railroady.prestonlee.com</text>
</g>
<!-- AlrMntrCntr -->
<g id="node2" class="node"><title>AlrMntrCntr</title>
<polyline fill="none" stroke="black" points="688,-489 870,-489 "/>
<path fill="none" stroke="black" d="M870,-489C876,-489 882,-495 882,-501"/>
<polyline fill="none" stroke="black" points="882,-501 882,-637 "/>
<path fill="none" stroke="black" d="M882,-637C882,-643 876,-649 870,-649"/>
<polyline fill="none" stroke="black" points="870,-649 688,-649 "/>
<path fill="none" stroke="black" d="M688,-649C682,-649 676,-643 676,-637"/>
<polyline fill="none" stroke="black" points="676,-637 676,-501 "/>
<path fill="none" stroke="black" d="M676,-501C676,-495 682,-489 688,-489"/>
<text text-anchor="middle" x="779" y="-632.4" font-family="Times Roman,serif" font-size="14.00">AlrMntrCntr</text>
<polyline fill="none" stroke="black" points="676,-623 882,-623 "/>
<text text-anchor="start" x="684" y="-606.4" font-family="Times Roman,serif" font-size="14.00">_id :Moped::BSON::ObjectId</text>
<text text-anchor="start" x="684" y="-588.4" font-family="Times Roman,serif" font-size="14.00">_type :String</text>
<text text-anchor="start" x="684" y="-570.4" font-family="Times Roman,serif" font-size="14.00">ctgry :String</text>
<text text-anchor="start" x="684" y="-552.4" font-family="Times Roman,serif" font-size="14.00">descr :String</text>
<text text-anchor="start" x="684" y="-534.4" font-family="Times Roman,serif" font-size="14.00">impact :String</text>
<text text-anchor="start" x="684" y="-516.4" font-family="Times Roman,serif" font-size="14.00">state :String</text>
<text text-anchor="start" x="684" y="-498.4" font-family="Times Roman,serif" font-size="14.00">value :Float</text>
</g>
<!-- Atr -->
<g id="node10" class="node"><title>Atr</title>
<polyline fill="none" stroke="black" points="464,-217 646,-217 "/>
<path fill="none" stroke="black" d="M646,-217C652,-217 658,-223 658,-229"/>
<polyline fill="none" stroke="black" points="658,-229 658,-401 "/>
<path fill="none" stroke="black" d="M658,-401C658,-407 652,-413 646,-413"/>
<polyline fill="none" stroke="black" points="646,-413 464,-413 "/>
<path fill="none" stroke="black" d="M464,-413C458,-413 452,-407 452,-401"/>
<polyline fill="none" stroke="black" points="452,-401 452,-229 "/>
<path fill="none" stroke="black" d="M452,-229C452,-223 458,-217 464,-217"/>
<text text-anchor="middle" x="555" y="-396.4" font-family="Times Roman,serif" font-size="14.00">Atr</text>
<polyline fill="none" stroke="black" points="452,-387 658,-387 "/>
<text text-anchor="start" x="460" y="-370.4" font-family="Times Roman,serif" font-size="14.00">_id :Moped::BSON::ObjectId</text>
<text text-anchor="start" x="460" y="-352.4" font-family="Times Roman,serif" font-size="14.00">desc :String</text>
<text text-anchor="start" x="460" y="-334.4" font-family="Times Roman,serif" font-size="14.00">mcr_atr_id :Object</text>
<text text-anchor="start" x="460" y="-316.4" font-family="Times Roman,serif" font-size="14.00">name :String</text>
<text text-anchor="start" x="460" y="-298.4" font-family="Times Roman,serif" font-size="14.00">rdbl :Boolean</text>
<text text-anchor="start" x="460" y="-280.4" font-family="Times Roman,serif" font-size="14.00">ref_prot :String</text>
<text text-anchor="start" x="460" y="-262.4" font-family="Times Roman,serif" font-size="14.00">tipo :String</text>
<text text-anchor="start" x="460" y="-244.4" font-family="Times Roman,serif" font-size="14.00">value :String</text>
<text text-anchor="start" x="460" y="-226.4" font-family="Times Roman,serif" font-size="14.00">wtbl :Boolean</text>
</g>
<!-- AlrMntrCntr&#45;&gt;Atr -->
<g id="edge2" class="edge"><title>AlrMntrCntr&#45;&gt;Atr</title>
<path fill="none" stroke="#0cf33c" d="M701.665,-481.308C684.53,-461.877 666.193,-441.085 648.491,-421.012"/>
<polygon fill="#0cf33c" stroke="#0cf33c" points="701.818,-481.481 705.057,-491.958 705.125,-485.231 708.432,-488.981 708.432,-488.981 708.432,-488.981 705.125,-485.231 711.808,-486.005 701.818,-481.481 701.818,-481.481"/>
<polygon fill="#0cf33c" stroke="#0cf33c" points="648.356,-420.859 645.116,-410.382 645.049,-417.109 641.741,-413.359 641.741,-413.359 641.741,-413.359 645.049,-417.109 638.366,-416.335 648.356,-420.859 648.356,-420.859"/>
</g>
<!-- Conn -->
<g id="node3" class="node"><title>Conn</title>
<polyline fill="none" stroke="black" points="912,-525 1094,-525 "/>
<path fill="none" stroke="black" d="M1094,-525C1100,-525 1106,-531 1106,-537"/>
<polyline fill="none" stroke="black" points="1106,-537 1106,-601 "/>
<path fill="none" stroke="black" d="M1106,-601C1106,-607 1100,-613 1094,-613"/>
<polyline fill="none" stroke="black" points="1094,-613 912,-613 "/>
<path fill="none" stroke="black" d="M912,-613C906,-613 900,-607 900,-601"/>
<polyline fill="none" stroke="black" points="900,-601 900,-537 "/>
<path fill="none" stroke="black" d="M900,-537C900,-531 906,-525 912,-525"/>
<text text-anchor="middle" x="1003" y="-596.4" font-family="Times Roman,serif" font-size="14.00">Conn</text>
<polyline fill="none" stroke="black" points="900,-587 1106,-587 "/>
<text text-anchor="start" x="908" y="-570.4" font-family="Times Roman,serif" font-size="14.00">_id :Moped::BSON::ObjectId</text>
<text text-anchor="start" x="908" y="-552.4" font-family="Times Roman,serif" font-size="14.00">ip :String</text>
<text text-anchor="start" x="908" y="-534.4" font-family="Times Roman,serif" font-size="14.00">port :Integer</text>
</g>
<!-- ManRsc -->
<g id="node7" class="node"><title>ManRsc</title>
<polyline fill="none" stroke="black" points="912,-741 1094,-741 "/>
<path fill="none" stroke="black" d="M1094,-741C1100,-741 1106,-747 1106,-753"/>
<polyline fill="none" stroke="black" points="1106,-753 1106,-925 "/>
<path fill="none" stroke="black" d="M1106,-925C1106,-931 1100,-937 1094,-937"/>
<polyline fill="none" stroke="black" points="1094,-937 912,-937 "/>
<path fill="none" stroke="black" d="M912,-937C906,-937 900,-931 900,-925"/>
<polyline fill="none" stroke="black" points="900,-925 900,-753 "/>
<path fill="none" stroke="black" d="M900,-753C900,-747 906,-741 912,-741"/>
<text text-anchor="middle" x="1003" y="-920.4" font-family="Times Roman,serif" font-size="14.00">ManRsc</text>
<polyline fill="none" stroke="black" points="900,-911 1106,-911 "/>
<text text-anchor="start" x="908" y="-894.4" font-family="Times Roman,serif" font-size="14.00">_id :Moped::BSON::ObjectId</text>
<text text-anchor="start" x="908" y="-876.4" font-family="Times Roman,serif" font-size="14.00">_type :String</text>
<text text-anchor="start" x="908" y="-858.4" font-family="Times Roman,serif" font-size="14.00">alrtbl :Boolean</text>
<text text-anchor="start" x="908" y="-840.4" font-family="Times Roman,serif" font-size="14.00">desc :String</text>
<text text-anchor="start" x="908" y="-822.4" font-family="Times Roman,serif" font-size="14.00">domain :String</text>
<text text-anchor="start" x="908" y="-804.4" font-family="Times Roman,serif" font-size="14.00">mngbl :Boolean</text>
<text text-anchor="start" x="908" y="-786.4" font-family="Times Roman,serif" font-size="14.00">name :String</text>
<text text-anchor="start" x="908" y="-768.4" font-family="Times Roman,serif" font-size="14.00">on :Boolean</text>
<text text-anchor="start" x="908" y="-750.4" font-family="Times Roman,serif" font-size="14.00">ref_prot :String</text>
</g>
<!-- Conn&#45;&gt;ManRsc -->
<g id="edge4" class="edge"><title>Conn&#45;&gt;ManRsc</title>
<path fill="none" stroke="#5e1cac" d="M1008.54,-623.302C1009.6,-654.112 1009.96,-693.781 1009.63,-730.68"/>
<polygon fill="#5e1cac" stroke="#5e1cac" points="1008.53,-623.202 1012.65,-613.037 1008.34,-618.206 1008.15,-613.21 1008.15,-613.21 1008.15,-613.21 1008.34,-618.206 1003.65,-613.382 1008.53,-623.202 1008.53,-623.202"/>
<polygon fill="#5e1cac" stroke="#5e1cac" points="1009.63,-730.761 1005.02,-740.711 1009.58,-735.76 1009.52,-740.76 1009.52,-740.76 1009.52,-740.76 1009.58,-735.76 1014.02,-740.809 1009.63,-730.761 1009.63,-730.761"/>
</g>
<!-- AlrMntrRng -->
<g id="node4" class="node"><title>AlrMntrRng</title>
<polyline fill="none" stroke="black" points="464,-480 646,-480 "/>
<path fill="none" stroke="black" d="M646,-480C652,-480 658,-486 658,-492"/>
<polyline fill="none" stroke="black" points="658,-492 658,-646 "/>
<path fill="none" stroke="black" d="M658,-646C658,-652 652,-658 646,-658"/>
<polyline fill="none" stroke="black" points="646,-658 464,-658 "/>
<path fill="none" stroke="black" d="M464,-658C458,-658 452,-652 452,-646"/>
<polyline fill="none" stroke="black" points="452,-646 452,-492 "/>
<path fill="none" stroke="black" d="M452,-492C452,-486 458,-480 464,-480"/>
<text text-anchor="middle" x="555" y="-641.4" font-family="Times Roman,serif" font-size="14.00">AlrMntrRng</text>
<polyline fill="none" stroke="black" points="452,-632 658,-632 "/>
<text text-anchor="start" x="460" y="-615.4" font-family="Times Roman,serif" font-size="14.00">_id :Moped::BSON::ObjectId</text>
<text text-anchor="start" x="460" y="-597.4" font-family="Times Roman,serif" font-size="14.00">_type :String</text>
<text text-anchor="start" x="460" y="-579.4" font-family="Times Roman,serif" font-size="14.00">ctgry :String</text>
<text text-anchor="start" x="460" y="-561.4" font-family="Times Roman,serif" font-size="14.00">descr :String</text>
<text text-anchor="start" x="460" y="-543.4" font-family="Times Roman,serif" font-size="14.00">impact :String</text>
<text text-anchor="start" x="460" y="-525.4" font-family="Times Roman,serif" font-size="14.00">state :String</text>
<text text-anchor="start" x="460" y="-507.4" font-family="Times Roman,serif" font-size="14.00">value_down :Float</text>
<text text-anchor="start" x="460" y="-489.4" font-family="Times Roman,serif" font-size="14.00">value_up :Float</text>
</g>
<!-- AlrMntrRng&#45;&gt;Atr -->
<g id="edge6" class="edge"><title>AlrMntrRng&#45;&gt;Atr</title>
<path fill="none" stroke="#0f7b3f" d="M555,-469.582C555,-454.343 555,-438.548 555,-423.132"/>
<polygon fill="#0f7b3f" stroke="#0f7b3f" points="555,-469.806 550.5,-479.806 555,-474.806 555,-479.806 555,-479.806 555,-479.806 555,-474.806 559.5,-479.806 555,-469.806 555,-469.806"/>
<polygon fill="#0f7b3f" stroke="#0f7b3f" points="555,-423.066 559.5,-413.066 555,-418.066 555,-413.066 555,-413.066 555,-413.066 555,-418.066 550.5,-413.066 555,-423.066 555,-423.066"/>
</g>
<!-- Serv -->
<g id="node5" class="node"><title>Serv</title>
<polyline fill="none" stroke="black" points="1136,-453 1318,-453 "/>
<path fill="none" stroke="black" d="M1318,-453C1324,-453 1330,-459 1330,-465"/>
<polyline fill="none" stroke="black" points="1330,-465 1330,-673 "/>
<path fill="none" stroke="black" d="M1330,-673C1330,-679 1324,-685 1318,-685"/>
<polyline fill="none" stroke="black" points="1318,-685 1136,-685 "/>
<path fill="none" stroke="black" d="M1136,-685C1130,-685 1124,-679 1124,-673"/>
<polyline fill="none" stroke="black" points="1124,-673 1124,-465 "/>
<path fill="none" stroke="black" d="M1124,-465C1124,-459 1130,-453 1136,-453"/>
<text text-anchor="middle" x="1227" y="-668.4" font-family="Times Roman,serif" font-size="14.00">Serv</text>
<polyline fill="none" stroke="black" points="1124,-659 1330,-659 "/>
<text text-anchor="start" x="1132" y="-642.4" font-family="Times Roman,serif" font-size="14.00">_id :Moped::BSON::ObjectId</text>
<text text-anchor="start" x="1132" y="-624.4" font-family="Times Roman,serif" font-size="14.00">_type :String</text>
<text text-anchor="start" x="1132" y="-606.4" font-family="Times Roman,serif" font-size="14.00">active :Boolean</text>
<text text-anchor="start" x="1132" y="-588.4" font-family="Times Roman,serif" font-size="14.00">alrtbl :Boolean</text>
<text text-anchor="start" x="1132" y="-570.4" font-family="Times Roman,serif" font-size="14.00">desc :String</text>
<text text-anchor="start" x="1132" y="-552.4" font-family="Times Roman,serif" font-size="14.00">domain :String</text>
<text text-anchor="start" x="1132" y="-534.4" font-family="Times Roman,serif" font-size="14.00">mngbl :Boolean</text>
<text text-anchor="start" x="1132" y="-516.4" font-family="Times Roman,serif" font-size="14.00">mother_id :Object</text>
<text text-anchor="start" x="1132" y="-498.4" font-family="Times Roman,serif" font-size="14.00">name :String</text>
<text text-anchor="start" x="1132" y="-480.4" font-family="Times Roman,serif" font-size="14.00">on :Boolean</text>
<text text-anchor="start" x="1132" y="-462.4" font-family="Times Roman,serif" font-size="14.00">ref_prot :String</text>
</g>
<!-- NetEle -->
<g id="node6" class="node"><title>NetEle</title>
<polyline fill="none" stroke="black" points="1136,-741 1318,-741 "/>
<path fill="none" stroke="black" d="M1318,-741C1324,-741 1330,-747 1330,-753"/>
<polyline fill="none" stroke="black" points="1330,-753 1330,-925 "/>
<path fill="none" stroke="black" d="M1330,-925C1330,-931 1324,-937 1318,-937"/>
<polyline fill="none" stroke="black" points="1318,-937 1136,-937 "/>
<path fill="none" stroke="black" d="M1136,-937C1130,-937 1124,-931 1124,-925"/>
<polyline fill="none" stroke="black" points="1124,-925 1124,-753 "/>
<path fill="none" stroke="black" d="M1124,-753C1124,-747 1130,-741 1136,-741"/>
<text text-anchor="middle" x="1227" y="-920.4" font-family="Times Roman,serif" font-size="14.00">NetEle</text>
<polyline fill="none" stroke="black" points="1124,-911 1330,-911 "/>
<text text-anchor="start" x="1132" y="-894.4" font-family="Times Roman,serif" font-size="14.00">_id :Moped::BSON::ObjectId</text>
<text text-anchor="start" x="1132" y="-876.4" font-family="Times Roman,serif" font-size="14.00">_type :String</text>
<text text-anchor="start" x="1132" y="-858.4" font-family="Times Roman,serif" font-size="14.00">alrtbl :Boolean</text>
<text text-anchor="start" x="1132" y="-840.4" font-family="Times Roman,serif" font-size="14.00">desc :String</text>
<text text-anchor="start" x="1132" y="-822.4" font-family="Times Roman,serif" font-size="14.00">domain :String</text>
<text text-anchor="start" x="1132" y="-804.4" font-family="Times Roman,serif" font-size="14.00">mngbl :Boolean</text>
<text text-anchor="start" x="1132" y="-786.4" font-family="Times Roman,serif" font-size="14.00">name :String</text>
<text text-anchor="start" x="1132" y="-768.4" font-family="Times Roman,serif" font-size="14.00">on :Boolean</text>
<text text-anchor="start" x="1132" y="-750.4" font-family="Times Roman,serif" font-size="14.00">ref_prot :String</text>
</g>
<!-- NetEle&#45;&gt;Serv -->
<g id="edge8" class="edge"><title>NetEle&#45;&gt;Serv</title>
<path fill="none" stroke="#0a5ff6" d="M1227,-732.644C1227,-720.318 1227,-707.657 1227,-695.099"/>
<ellipse fill="none" stroke="#0a5ff6" cx="1227" cy="-736.76" rx="4" ry="4"/>
<polygon fill="#0a5ff6" stroke="#0a5ff6" points="1227,-695.059 1231.5,-685.059 1227,-690.059 1227,-685.059 1227,-685.059 1227,-685.059 1227,-690.059 1222.5,-685.059 1227,-695.059 1227,-695.059"/>
<text text-anchor="middle" x="1254.5" y="-709.4" font-family="Times Roman,serif" font-size="14.00">children</text>
</g>
<!-- ManRsc&#45;&gt;Conn -->
<g id="edge10" class="edge"><title>ManRsc&#45;&gt;Conn</title>
<path fill="none" stroke="#d9f1d7" d="M996.386,-732.501C996.018,-694.34 996.399,-652.994 997.529,-621.428"/>
<ellipse fill="none" stroke="#d9f1d7" cx="996.433" cy="-736.76" rx="4" ry="4"/>
<ellipse fill="#d9f1d7" stroke="#d9f1d7" cx="997.693" cy="-617.207" rx="4" ry="4"/>
</g>
<!-- McrAtr -->
<g id="node14" class="node"><title>McrAtr</title>
<polyline fill="none" stroke="black" points="240,-498 422,-498 "/>
<path fill="none" stroke="black" d="M422,-498C428,-498 434,-504 434,-510"/>
<polyline fill="none" stroke="black" points="434,-510 434,-628 "/>
<path fill="none" stroke="black" d="M434,-628C434,-634 428,-640 422,-640"/>
<polyline fill="none" stroke="black" points="422,-640 240,-640 "/>
<path fill="none" stroke="black" d="M240,-640C234,-640 228,-634 228,-628"/>
<polyline fill="none" stroke="black" points="228,-628 228,-510 "/>
<path fill="none" stroke="black" d="M228,-510C228,-504 234,-498 240,-498"/>
<text text-anchor="middle" x="331" y="-623.4" font-family="Times Roman,serif" font-size="14.00">McrAtr</text>
<polyline fill="none" stroke="black" points="228,-614 434,-614 "/>
<text text-anchor="start" x="236" y="-597.4" font-family="Times Roman,serif" font-size="14.00">_id :Moped::BSON::ObjectId</text>
<text text-anchor="start" x="236" y="-579.4" font-family="Times Roman,serif" font-size="14.00">desc :String</text>
<text text-anchor="start" x="236" y="-561.4" font-family="Times Roman,serif" font-size="14.00">man_rsc_id :Object</text>
<text text-anchor="start" x="236" y="-543.4" font-family="Times Roman,serif" font-size="14.00">name :String</text>
<text text-anchor="start" x="236" y="-525.4" font-family="Times Roman,serif" font-size="14.00">ref_prot :String</text>
<text text-anchor="start" x="236" y="-507.4" font-family="Times Roman,serif" font-size="14.00">tipo :String</text>
</g>
<!-- ManRsc&#45;&gt;McrAtr -->
<g id="edge12" class="edge"><title>ManRsc&#45;&gt;McrAtr</title>
<path fill="none" stroke="#c7e9b9" d="M891.942,-826.522C773.733,-809.32 584.588,-770.289 443,-686 425.558,-675.617 409.047,-661.786 394.329,-647.278"/>
<ellipse fill="none" stroke="#c7e9b9" cx="896.017" cy="-827.106" rx="4.00001" ry="4.00001"/>
<polygon fill="#c7e9b9" stroke="#c7e9b9" points="394.28,-647.228 390.453,-636.951 390.766,-643.67 387.252,-640.113 387.252,-640.113 387.252,-640.113 390.766,-643.67 384.051,-643.276 394.28,-647.228 394.28,-647.228"/>
</g>
<!-- AlrMntrFrml -->
<g id="node8" class="node"><title>AlrMntrFrml</title>
<polyline fill="none" stroke="black" points="240,-759 422,-759 "/>
<path fill="none" stroke="black" d="M422,-759C428,-759 434,-765 434,-771"/>
<polyline fill="none" stroke="black" points="434,-771 434,-907 "/>
<path fill="none" stroke="black" d="M434,-907C434,-913 428,-919 422,-919"/>
<polyline fill="none" stroke="black" points="422,-919 240,-919 "/>
<path fill="none" stroke="black" d="M240,-919C234,-919 228,-913 228,-907"/>
<polyline fill="none" stroke="black" points="228,-907 228,-771 "/>
<path fill="none" stroke="black" d="M228,-771C228,-765 234,-759 240,-759"/>
<text text-anchor="middle" x="331" y="-902.4" font-family="Times Roman,serif" font-size="14.00">AlrMntrFrml</text>
<polyline fill="none" stroke="black" points="228,-893 434,-893 "/>
<text text-anchor="start" x="236" y="-876.4" font-family="Times Roman,serif" font-size="14.00">_id :Moped::BSON::ObjectId</text>
<text text-anchor="start" x="236" y="-858.4" font-family="Times Roman,serif" font-size="14.00">_type :String</text>
<text text-anchor="start" x="236" y="-840.4" font-family="Times Roman,serif" font-size="14.00">ctgry :String</text>
<text text-anchor="start" x="236" y="-822.4" font-family="Times Roman,serif" font-size="14.00">descr :String</text>
<text text-anchor="start" x="236" y="-804.4" font-family="Times Roman,serif" font-size="14.00">impact :String</text>
<text text-anchor="start" x="236" y="-786.4" font-family="Times Roman,serif" font-size="14.00">state :String</text>
<text text-anchor="start" x="236" y="-768.4" font-family="Times Roman,serif" font-size="14.00">value :String</text>
</g>
<!-- AlrMntrFrml&#45;&gt;McrAtr -->
<g id="edge14" class="edge"><title>AlrMntrFrml&#45;&gt;McrAtr</title>
<path fill="none" stroke="#301cb6" d="M331,-748.428C331,-716.763 331,-681.427 331,-650.542"/>
<polygon fill="#301cb6" stroke="#301cb6" points="331,-748.722 326.5,-758.722 331,-753.722 331,-758.722 331,-758.722 331,-758.722 331,-753.722 335.5,-758.722 331,-748.722 331,-748.722"/>
<polygon fill="#301cb6" stroke="#301cb6" points="331,-650.251 335.5,-640.251 331,-645.251 331,-640.251 331,-640.251 331,-640.251 331,-645.251 326.5,-640.251 331,-650.251 331,-650.251"/>
</g>
<!-- AlrMntr -->
<g id="node9" class="node"><title>AlrMntr</title>
<polyline fill="none" stroke="black" points="422,-10 604,-10 "/>
<path fill="none" stroke="black" d="M604,-10C610,-10 616,-16 616,-22"/>
<polyline fill="none" stroke="black" points="616,-22 616,-140 "/>
<path fill="none" stroke="black" d="M616,-140C616,-146 610,-152 604,-152"/>
<polyline fill="none" stroke="black" points="604,-152 422,-152 "/>
<path fill="none" stroke="black" d="M422,-152C416,-152 410,-146 410,-140"/>
<polyline fill="none" stroke="black" points="410,-140 410,-22 "/>
<path fill="none" stroke="black" d="M410,-22C410,-16 416,-10 422,-10"/>
<text text-anchor="middle" x="513" y="-135.4" font-family="Times Roman,serif" font-size="14.00">AlrMntr</text>
<polyline fill="none" stroke="black" points="410,-126 616,-126 "/>
<text text-anchor="start" x="418" y="-109.4" font-family="Times Roman,serif" font-size="14.00">_id :Moped::BSON::ObjectId</text>
<text text-anchor="start" x="418" y="-91.4" font-family="Times Roman,serif" font-size="14.00">_type :String</text>
<text text-anchor="start" x="418" y="-73.4" font-family="Times Roman,serif" font-size="14.00">ctgry :String</text>
<text text-anchor="start" x="418" y="-55.4" font-family="Times Roman,serif" font-size="14.00">descr :String</text>
<text text-anchor="start" x="418" y="-37.4" font-family="Times Roman,serif" font-size="14.00">impact :String</text>
<text text-anchor="start" x="418" y="-19.4" font-family="Times Roman,serif" font-size="14.00">state :String</text>
</g>
<!-- Atr&#45;&gt;AlrMntr -->
<g id="edge22" class="edge"><title>Atr&#45;&gt;AlrMntr</title>
<path fill="none" stroke="#eacd2c" d="M538.065,-208.701C536.4,-198.989 534.698,-189.308 533,-180 531.813,-173.491 530.541,-166.75 529.235,-159.986"/>
<ellipse fill="none" stroke="#eacd2c" cx="538.782" cy="-212.916" rx="4.00001" ry="4.00001"/>
<ellipse fill="#eacd2c" stroke="#eacd2c" cx="528.454" cy="-155.975" rx="4.00001" ry="4.00001"/>
<text text-anchor="middle" x="564" y="-185.4" font-family="Times Roman,serif" font-size="14.00">alr_mon</text>
</g>
<!-- Atr&#45;&gt;AlrMntr -->
<g id="edge20" class="edge"><title>Atr&#45;&gt;AlrMntr</title>
<path fill="none" stroke="#34f6da" d="M476.046,-209.138C474.547,-205.45 473.19,-201.734 472,-198 468.076,-185.688 468.248,-172.715 470.81,-160.069"/>
<ellipse fill="none" stroke="#34f6da" cx="477.722" cy="-212.994" rx="4.00002" ry="4.00002"/>
<ellipse fill="#34f6da" stroke="#34f6da" cx="471.76" cy="-156.134" rx="4.00001" ry="4.00001"/>
<text text-anchor="middle" x="502.5" y="-185.4" font-family="Times Roman,serif" font-size="14.00">qos_mon</text>
</g>
<!-- AtrHst -->
<g id="node11" class="node"><title>AtrHst</title>
<polyline fill="none" stroke="black" points="646,-28 828,-28 "/>
<path fill="none" stroke="black" d="M828,-28C834,-28 840,-34 840,-40"/>
<polyline fill="none" stroke="black" points="840,-40 840,-122 "/>
<path fill="none" stroke="black" d="M840,-122C840,-128 834,-134 828,-134"/>
<polyline fill="none" stroke="black" points="828,-134 646,-134 "/>
<path fill="none" stroke="black" d="M646,-134C640,-134 634,-128 634,-122"/>
<polyline fill="none" stroke="black" points="634,-122 634,-40 "/>
<path fill="none" stroke="black" d="M634,-40C634,-34 640,-28 646,-28"/>
<text text-anchor="middle" x="737" y="-117.4" font-family="Times Roman,serif" font-size="14.00">AtrHst</text>
<polyline fill="none" stroke="black" points="634,-108 840,-108 "/>
<text text-anchor="start" x="642" y="-91.4" font-family="Times Roman,serif" font-size="14.00">_id :Moped::BSON::ObjectId</text>
<text text-anchor="start" x="642" y="-73.4" font-family="Times Roman,serif" font-size="14.00">atr_id :Object</text>
<text text-anchor="start" x="642" y="-55.4" font-family="Times Roman,serif" font-size="14.00">tstamp :Integer</text>
<text text-anchor="start" x="642" y="-37.4" font-family="Times Roman,serif" font-size="14.00">value :String</text>
</g>
<!-- Atr&#45;&gt;AtrHst -->
<g id="edge18" class="edge"><title>Atr&#45;&gt;AtrHst</title>
<path fill="none" stroke="#9810ea" d="M636.305,-210.464C654.391,-187.211 672.994,-163.294 689.211,-142.443"/>
<ellipse fill="none" stroke="#9810ea" cx="633.849" cy="-213.623" rx="4.00002" ry="4.00002"/>
<polygon fill="#9810ea" stroke="#9810ea" points="689.397,-142.203 699.089,-137.073 692.467,-138.257 695.537,-134.31 695.537,-134.31 695.537,-134.31 692.467,-138.257 691.985,-131.547 689.397,-142.203 689.397,-142.203"/>
</g>
<!-- Alrt -->
<g id="node13" class="node"><title>Alrt</title>
<polyline fill="none" stroke="black" points="198,-1 380,-1 "/>
<path fill="none" stroke="black" d="M380,-1C386,-1 392,-7 392,-13"/>
<polyline fill="none" stroke="black" points="392,-13 392,-149 "/>
<path fill="none" stroke="black" d="M392,-149C392,-155 386,-161 380,-161"/>
<polyline fill="none" stroke="black" points="380,-161 198,-161 "/>
<path fill="none" stroke="black" d="M198,-161C192,-161 186,-155 186,-149"/>
<polyline fill="none" stroke="black" points="186,-149 186,-13 "/>
<path fill="none" stroke="black" d="M186,-13C186,-7 192,-1 198,-1"/>
<text text-anchor="middle" x="289" y="-144.4" font-family="Times Roman,serif" font-size="14.00">Alrt</text>
<polyline fill="none" stroke="black" points="186,-135 392,-135 "/>
<text text-anchor="start" x="194" y="-118.4" font-family="Times Roman,serif" font-size="14.00">_id :Moped::BSON::ObjectId</text>
<text text-anchor="start" x="194" y="-100.4" font-family="Times Roman,serif" font-size="14.00">atr_id :Object</text>
<text text-anchor="start" x="194" y="-82.4" font-family="Times Roman,serif" font-size="14.00">mcr_atr_id :Object</text>
<text text-anchor="start" x="194" y="-64.4" font-family="Times Roman,serif" font-size="14.00">msg :String</text>
<text text-anchor="start" x="194" y="-46.4" font-family="Times Roman,serif" font-size="14.00">tipo :String</text>
<text text-anchor="start" x="194" y="-28.4" font-family="Times Roman,serif" font-size="14.00">title :String</text>
<text text-anchor="start" x="194" y="-10.4" font-family="Times Roman,serif" font-size="14.00">tstamp :Integer</text>
</g>
<!-- Atr&#45;&gt;Alrt -->
<g id="edge16" class="edge"><title>Atr&#45;&gt;Alrt</title>
<path fill="none" stroke="#583142" d="M445.65,-218.805C426.48,-201.941 406.633,-184.481 387.771,-167.888"/>
<ellipse fill="none" stroke="#583142" cx="448.773" cy="-221.553" rx="4.00002" ry="4.00002"/>
<polygon fill="#583142" stroke="#583142" points="387.543,-167.688 383.007,-157.705 383.789,-164.386 380.035,-161.083 380.035,-161.083 380.035,-161.083 383.789,-164.386 377.063,-164.462 387.543,-167.688 387.543,-167.688"/>
</g>
<!-- Link -->
<g id="node12" class="node"><title>Link</title>
<polyline fill="none" stroke="black" points="1360,-786 1542,-786 "/>
<path fill="none" stroke="black" d="M1542,-786C1548,-786 1554,-792 1554,-798"/>
<polyline fill="none" stroke="black" points="1554,-798 1554,-880 "/>
<path fill="none" stroke="black" d="M1554,-880C1554,-886 1548,-892 1542,-892"/>
<polyline fill="none" stroke="black" points="1542,-892 1360,-892 "/>
<path fill="none" stroke="black" d="M1360,-892C1354,-892 1348,-886 1348,-880"/>
<polyline fill="none" stroke="black" points="1348,-880 1348,-798 "/>
<path fill="none" stroke="black" d="M1348,-798C1348,-792 1354,-786 1360,-786"/>
<text text-anchor="middle" x="1451" y="-875.4" font-family="Times Roman,serif" font-size="14.00">Link</text>
<polyline fill="none" stroke="black" points="1348,-866 1554,-866 "/>
<text text-anchor="start" x="1356" y="-849.4" font-family="Times Roman,serif" font-size="14.00">_id :Moped::BSON::ObjectId</text>
<text text-anchor="start" x="1356" y="-831.4" font-family="Times Roman,serif" font-size="14.00">desc :String</text>
<text text-anchor="start" x="1356" y="-813.4" font-family="Times Roman,serif" font-size="14.00">link_a :String</text>
<text text-anchor="start" x="1356" y="-795.4" font-family="Times Roman,serif" font-size="14.00">link_b :String</text>
</g>
<!-- McrAtr&#45;&gt;AlrMntr -->
<g id="edge28" class="edge"><title>McrAtr&#45;&gt;AlrMntr</title>
<path fill="none" stroke="#7466fd" d="M338.157,-489.538C347.113,-400.632 364.101,-262.909 387,-216 397.021,-195.473 411.224,-175.914 426.505,-158.376"/>
<ellipse fill="none" stroke="#7466fd" cx="337.739" cy="-493.738" rx="4" ry="4"/>
<ellipse fill="#7466fd" stroke="#7466fd" cx="429.517" cy="-154.994" rx="4.00002" ry="4.00002"/>
<text text-anchor="middle" x="415" y="-311.4" font-family="Times Roman,serif" font-size="14.00">alr_mon</text>
</g>
<!-- McrAtr&#45;&gt;Atr -->
<g id="edge26" class="edge"><title>McrAtr&#45;&gt;Atr</title>
<path fill="none" stroke="#344432" d="M399.186,-491.682C418.888,-469.341 440.738,-444.565 461.689,-420.808"/>
<ellipse fill="none" stroke="#344432" cx="396.34" cy="-494.909" rx="4.00002" ry="4.00002"/>
<polygon fill="#344432" stroke="#344432" points="461.842,-420.634 471.832,-416.111 465.149,-416.884 468.456,-413.134 468.456,-413.134 468.456,-413.134 465.149,-416.884 465.081,-410.158 461.842,-420.634 461.842,-420.634"/>
</g>
<!-- McrAtr&#45;&gt;Alrt -->
<g id="edge24" class="edge"><title>McrAtr&#45;&gt;Alrt</title>
<path fill="none" stroke="#52f749" d="M324.179,-489.748C316.676,-402.567 304.641,-262.732 296.777,-171.359"/>
<ellipse fill="none" stroke="#52f749" cx="324.527" cy="-493.794" rx="4" ry="4"/>
<polygon fill="#52f749" stroke="#52f749" points="296.768,-171.256 300.394,-160.907 296.339,-166.275 295.91,-161.293 295.91,-161.293 295.91,-161.293 296.339,-166.275 291.427,-161.679 296.768,-171.256 296.768,-171.256"/>
</g>
<!-- LaynetEle -->
<g id="node15" class="node"><title>LaynetEle</title>
<polyline fill="none" stroke="black" points="1584,-741 1766,-741 "/>
<path fill="none" stroke="black" d="M1766,-741C1772,-741 1778,-747 1778,-753"/>
<polyline fill="none" stroke="black" points="1778,-753 1778,-925 "/>
<path fill="none" stroke="black" d="M1778,-925C1778,-931 1772,-937 1766,-937"/>
<polyline fill="none" stroke="black" points="1766,-937 1584,-937 "/>
<path fill="none" stroke="black" d="M1584,-937C1578,-937 1572,-931 1572,-925"/>
<polyline fill="none" stroke="black" points="1572,-925 1572,-753 "/>
<path fill="none" stroke="black" d="M1572,-753C1572,-747 1578,-741 1584,-741"/>
<text text-anchor="middle" x="1675" y="-920.4" font-family="Times Roman,serif" font-size="14.00">LaynetEle</text>
<polyline fill="none" stroke="black" points="1572,-911 1778,-911 "/>
<text text-anchor="start" x="1580" y="-894.4" font-family="Times Roman,serif" font-size="14.00">_id :Moped::BSON::ObjectId</text>
<text text-anchor="start" x="1580" y="-876.4" font-family="Times Roman,serif" font-size="14.00">_type :String</text>
<text text-anchor="start" x="1580" y="-858.4" font-family="Times Roman,serif" font-size="14.00">alrtbl :Boolean</text>
<text text-anchor="start" x="1580" y="-840.4" font-family="Times Roman,serif" font-size="14.00">desc :String</text>
<text text-anchor="start" x="1580" y="-822.4" font-family="Times Roman,serif" font-size="14.00">domain :String</text>
<text text-anchor="start" x="1580" y="-804.4" font-family="Times Roman,serif" font-size="14.00">mngbl :Boolean</text>
<text text-anchor="start" x="1580" y="-786.4" font-family="Times Roman,serif" font-size="14.00">name :String</text>
<text text-anchor="start" x="1580" y="-768.4" font-family="Times Roman,serif" font-size="14.00">on :Boolean</text>
<text text-anchor="start" x="1580" y="-750.4" font-family="Times Roman,serif" font-size="14.00">ref_prot :String</text>
</g>
</g>
</svg>
