<?xml version="1.0" encoding="UTF-8" standalone="no"?>
<!DOCTYPE svg PUBLIC "-//W3C//DTD SVG 1.1//EN"
 "http://www.w3.org/Graphics/SVG/1.1/DTD/svg11.dtd">
<!-- Generated by graphviz version 2.26.3 (20100126.1600)
 -->
<!-- Title: models_diagram Pages: 1 -->
<svg width="1094pt" height="344pt"
 viewBox="0.00 0.00 1094.00 344.00" xmlns="http://www.w3.org/2000/svg" xmlns:xlink="http://www.w3.org/1999/xlink">
<g id="graph1" class="graph" transform="scale(1 1) rotate(0) translate(4 340)">
<title>models_diagram</title>
<polygon fill="white" stroke="white" points="-4,5 -4,-340 1091,-340 1091,5 -4,5"/>
<!-- _diagram_info -->
<g id="node1" class="node"><title>_diagram_info</title>
<text text-anchor="start" x="8" y="-320.3" font-family="Times Roman,serif" font-size="13.00">Models diagram</text>
<text text-anchor="start" x="8" y="-303.3" font-family="Times Roman,serif" font-size="13.00">Date: Jun 20 2013 &#45; 09:27</text>
<text text-anchor="start" x="8" y="-286.3" font-family="Times Roman,serif" font-size="13.00">Generated by RailRoady 1.1.0</text>
<text text-anchor="start" x="8" y="-269.3" font-family="Times Roman,serif" font-size="13.00">http://railroady.prestonlee.com</text>
</g>
<!-- AlrMntrCntr -->
<g id="node2" class="node"><title>AlrMntrCntr</title>
<ellipse fill="none" stroke="black" cx="584" cy="-187" rx="70.2092" ry="18.3848"/>
<text text-anchor="middle" x="584" y="-183.4" font-family="Times Roman,serif" font-size="14.00">AlrMntrCntr</text>
</g>
<!-- Atr -->
<g id="node10" class="node"><title>Atr</title>
<ellipse fill="none" stroke="black" cx="428" cy="-111" rx="27" ry="18.3848"/>
<text text-anchor="middle" x="428" y="-107.4" font-family="Times Roman,serif" font-size="14.00">Atr</text>
</g>
<!-- AlrMntrCntr&#45;&gt;Atr -->
<g id="edge2" class="edge"><title>AlrMntrCntr&#45;&gt;Atr</title>
<path fill="none" stroke="#c96c27" d="M541.313,-166.204C515.465,-153.611 483.06,-137.824 459.531,-126.361"/>
<polygon fill="#c96c27" stroke="#c96c27" points="541.544,-166.316 548.563,-174.742 546.039,-168.506 550.534,-170.696 550.534,-170.696 550.534,-170.696 546.039,-168.506 552.505,-166.651 541.544,-166.316 541.544,-166.316"/>
<polygon fill="#c96c27" stroke="#c96c27" points="459.342,-126.269 452.323,-117.844 454.847,-124.079 450.352,-121.89 450.352,-121.89 450.352,-121.89 454.847,-124.079 448.381,-125.935 459.342,-126.269 459.342,-126.269"/>
</g>
<!-- Conn -->
<g id="node3" class="node"><title>Conn</title>
<ellipse fill="none" stroke="black" cx="709" cy="-187" rx="36.977" ry="18.3848"/>
<text text-anchor="middle" x="709" y="-183.4" font-family="Times Roman,serif" font-size="14.00">Conn</text>
</g>
<!-- ManRsc -->
<g id="node7" class="node"><title>ManRsc</title>
<ellipse fill="none" stroke="black" cx="709" cy="-298" rx="48.7904" ry="18.3848"/>
<text text-anchor="middle" x="709" y="-294.4" font-family="Times Roman,serif" font-size="14.00">ManRsc</text>
</g>
<!-- Conn&#45;&gt;ManRsc -->
<g id="edge4" class="edge"><title>Conn&#45;&gt;ManRsc</title>
<path fill="none" stroke="#f43b61" d="M715,-215.78C716.001,-232.246 716,-252.833 714.996,-269.288"/>
<polygon fill="#f43b61" stroke="#f43b61" points="714.987,-215.608 718.684,-205.285 714.592,-210.624 714.198,-205.64 714.198,-205.64 714.198,-205.64 714.592,-210.624 709.712,-205.994 714.987,-215.608 714.987,-215.608"/>
<polygon fill="#f43b61" stroke="#f43b61" points="714.983,-269.452 709.706,-279.065 714.587,-274.437 714.192,-279.421 714.192,-279.421 714.192,-279.421 714.587,-274.437 718.678,-279.777 714.983,-269.452 714.983,-269.452"/>
</g>
<!-- AlrMntrRng -->
<g id="node4" class="node"><title>AlrMntrRng</title>
<ellipse fill="none" stroke="black" cx="428" cy="-187" rx="67.8823" ry="18.3848"/>
<text text-anchor="middle" x="428" y="-183.4" font-family="Times Roman,serif" font-size="14.00">AlrMntrRng</text>
</g>
<!-- AlrMntrRng&#45;&gt;Atr -->
<g id="edge6" class="edge"><title>AlrMntrRng&#45;&gt;Atr</title>
<path fill="none" stroke="#92fa56" d="M428,-157.938C428,-151.986 428,-145.725 428,-139.783"/>
<polygon fill="#92fa56" stroke="#92fa56" points="428,-158.213 423.5,-168.213 428,-163.213 428,-168.213 428,-168.213 428,-168.213 428,-163.213 432.5,-168.214 428,-158.213 428,-158.213"/>
<polygon fill="#92fa56" stroke="#92fa56" points="428,-139.57 432.5,-129.57 428,-134.57 428,-129.57 428,-129.57 428,-129.57 428,-134.57 423.5,-129.57 428,-139.57 428,-139.57"/>
</g>
<!-- Serv -->
<g id="node5" class="node"><title>Serv</title>
<ellipse fill="none" stroke="black" cx="820" cy="-187" rx="33.9411" ry="18.3848"/>
<text text-anchor="middle" x="820" y="-183.4" font-family="Times Roman,serif" font-size="14.00">Serv</text>
</g>
<!-- NetEle -->
<g id="node6" class="node"><title>NetEle</title>
<ellipse fill="none" stroke="black" cx="820" cy="-298" rx="43.8406" ry="18.3848"/>
<text text-anchor="middle" x="820" y="-294.4" font-family="Times Roman,serif" font-size="14.00">NetEle</text>
</g>
<!-- NetEle&#45;&gt;Serv -->
<g id="edge8" class="edge"><title>NetEle&#45;&gt;Serv</title>
<path fill="none" stroke="#d7da37" d="M820,-271.209C820,-254.414 820,-232.779 820,-215.644"/>
<ellipse fill="none" stroke="#d7da37" cx="820" cy="-275.421" rx="4" ry="4"/>
<polygon fill="#d7da37" stroke="#d7da37" points="820,-215.64 824.5,-205.639 820,-210.64 820,-205.64 820,-205.64 820,-205.64 820,-210.64 815.5,-205.64 820,-215.64 820,-215.64"/>
<text text-anchor="middle" x="847.5" y="-229.4" font-family="Times Roman,serif" font-size="14.00">children</text>
</g>
<!-- ManRsc&#45;&gt;Conn -->
<g id="edge10" class="edge"><title>ManRsc&#45;&gt;Conn</title>
<path fill="none" stroke="#19e81f" d="M703.127,-271.209C701.956,-253.78 701.958,-231.139 703.132,-213.723"/>
<ellipse fill="none" stroke="#19e81f" cx="703.478" cy="-275.435" rx="4" ry="4"/>
<ellipse fill="#19e81f" stroke="#19e81f" cx="703.471" cy="-209.626" rx="4" ry="4"/>
</g>
<!-- McrAtr -->
<g id="node14" class="node"><title>McrAtr</title>
<ellipse fill="none" stroke="black" cx="298" cy="-187" rx="44.0472" ry="18.3848"/>
<text text-anchor="middle" x="298" y="-183.4" font-family="Times Roman,serif" font-size="14.00">McrAtr</text>
</g>
<!-- ManRsc&#45;&gt;McrAtr -->
<g id="edge12" class="edge"><title>ManRsc&#45;&gt;McrAtr</title>
<path fill="none" stroke="#93e1a3" d="M658.564,-286.596C588.881,-270.489 459.468,-239.301 351,-206 347.627,-204.965 344.152,-203.843 340.67,-202.681"/>
<ellipse fill="none" stroke="#93e1a3" cx="662.862" cy="-287.587" rx="4.00001" ry="4.00001"/>
<polygon fill="#93e1a3" stroke="#93e1a3" points="340.379,-202.581 332.381,-195.078 335.649,-200.958 330.92,-199.335 330.92,-199.335 330.92,-199.335 335.649,-200.958 329.459,-203.591 340.379,-202.581 340.379,-202.581"/>
</g>
<!-- AlrMntrFrml -->
<g id="node8" class="node"><title>AlrMntrFrml</title>
<ellipse fill="none" stroke="black" cx="298" cy="-298" rx="70.0036" ry="18.3848"/>
<text text-anchor="middle" x="298" y="-294.4" font-family="Times Roman,serif" font-size="14.00">AlrMntrFrml</text>
</g>
<!-- AlrMntrFrml&#45;&gt;McrAtr -->
<g id="edge14" class="edge"><title>AlrMntrFrml&#45;&gt;McrAtr</title>
<path fill="none" stroke="#b0b9fa" d="M298,-269.288C298,-252.833 298,-232.246 298,-215.78"/>
<polygon fill="#b0b9fa" stroke="#b0b9fa" points="298,-269.421 293.5,-279.421 298,-274.421 298,-279.421 298,-279.421 298,-279.421 298,-274.421 302.5,-279.421 298,-269.421 298,-269.421"/>
<polygon fill="#b0b9fa" stroke="#b0b9fa" points="298,-215.64 302.5,-205.639 298,-210.64 298,-205.64 298,-205.64 298,-205.64 298,-210.64 293.5,-205.64 298,-215.64 298,-215.64"/>
</g>
<!-- AlrMntr -->
<g id="node9" class="node"><title>AlrMntr</title>
<ellipse fill="none" stroke="black" cx="371" cy="-19" rx="48.7904" ry="18.3848"/>
<text text-anchor="middle" x="371" y="-15.4" font-family="Times Roman,serif" font-size="14.00">AlrMntr</text>
</g>
<!-- Atr&#45;&gt;AlrMntr -->
<g id="edge22" class="edge"><title>Atr&#45;&gt;AlrMntr</title>
<path fill="none" stroke="#f8940b" d="M436.369,-85.2185C438.022,-75.516 437.956,-64.7287 433,-56 428.451,-47.9881 421.404,-41.5268 413.667,-36.3862"/>
<ellipse fill="none" stroke="#f8940b" cx="435.506" cy="-89.1381" rx="4.00001" ry="4.00001"/>
<ellipse fill="#f8940b" stroke="#f8940b" cx="409.849" cy="-34.0907" rx="4.00002" ry="4.00002"/>
<text text-anchor="middle" x="466" y="-61.4" font-family="Times Roman,serif" font-size="14.00">alr_mon</text>
</g>
<!-- Atr&#45;&gt;AlrMntr -->
<g id="edge20" class="edge"><title>Atr&#45;&gt;AlrMntr</title>
<path fill="none" stroke="#fd8ba9" d="M397.147,-97.8645C387.343,-92.057 377.6,-84.1895 372,-74 367.339,-65.5201 366.211,-55.1372 366.549,-45.686"/>
<ellipse fill="none" stroke="#fd8ba9" cx="400.727" cy="-99.8175" rx="4.00002" ry="4.00002"/>
<ellipse fill="#fd8ba9" stroke="#fd8ba9" cx="366.862" cy="-41.6793" rx="4" ry="4"/>
<text text-anchor="middle" x="402.5" y="-61.4" font-family="Times Roman,serif" font-size="14.00">qos_mon</text>
</g>
<!-- AtrHst -->
<g id="node11" class="node"><title>AtrHst</title>
<ellipse fill="none" stroke="black" cx="526" cy="-19" rx="43.8406" ry="18.3848"/>
<text text-anchor="middle" x="526" y="-15.4" font-family="Times Roman,serif" font-size="14.00">AtrHst</text>
</g>
<!-- Atr&#45;&gt;AtrHst -->
<g id="edge18" class="edge"><title>Atr&#45;&gt;AtrHst</title>
<path fill="none" stroke="#481dce" d="M459.564,-99.3287C472.665,-93.2988 487.277,-84.8892 498,-74 505.533,-66.3507 511.458,-56.2639 515.881,-46.8194"/>
<ellipse fill="none" stroke="#481dce" cx="455.732" cy="-101.003" rx="4.00002" ry="4.00002"/>
<polygon fill="#481dce" stroke="#481dce" points="516.006,-46.5283 524.085,-39.1137 517.978,-41.9336 519.95,-37.3389 519.95,-37.3389 519.95,-37.3389 517.978,-41.9336 515.814,-35.5641 516.006,-46.5283 516.006,-46.5283"/>
</g>
<!-- Alrt -->
<g id="node13" class="node"><title>Alrt</title>
<ellipse fill="none" stroke="black" cx="271" cy="-19" rx="29.1951" ry="18.3848"/>
<text text-anchor="middle" x="271" y="-15.4" font-family="Times Roman,serif" font-size="14.00">Alrt</text>
</g>
<!-- Atr&#45;&gt;Alrt -->
<g id="edge16" class="edge"><title>Atr&#45;&gt;Alrt</title>
<path fill="none" stroke="#d0418a" d="M399.654,-95.0383C388.235,-88.5631 374.96,-80.9781 363,-74 342.195,-61.8617 318.909,-47.9375 300.97,-37.1364"/>
<ellipse fill="none" stroke="#d0418a" cx="403.377" cy="-97.1453" rx="4.00002" ry="4.00002"/>
<polygon fill="#d0418a" stroke="#d0418a" points="300.682,-36.9624 294.441,-27.9451 296.4,-34.3806 292.118,-31.7988 292.118,-31.7988 292.118,-31.7988 296.4,-34.3806 289.794,-35.6525 300.682,-36.9624 300.682,-36.9624"/>
</g>
<!-- Link -->
<g id="node12" class="node"><title>Link</title>
<ellipse fill="none" stroke="black" cx="914" cy="-298" rx="32.0265" ry="18.3848"/>
<text text-anchor="middle" x="914" y="-294.4" font-family="Times Roman,serif" font-size="14.00">Link</text>
</g>
<!-- McrAtr&#45;&gt;AlrMntr -->
<g id="edge28" class="edge"><title>McrAtr&#45;&gt;AlrMntr</title>
<path fill="none" stroke="#471594" d="M307.802,-161.157C315.218,-141.943 325.83,-115.158 336,-92 342.962,-76.1472 351.328,-58.6477 358.135,-44.7571"/>
<ellipse fill="none" stroke="#471594" cx="306.362" cy="-164.904" rx="4.00001" ry="4.00001"/>
<ellipse fill="#471594" stroke="#471594" cx="359.969" cy="-41.0329" rx="4.00002" ry="4.00002"/>
<text text-anchor="middle" x="364" y="-107.4" font-family="Times Roman,serif" font-size="14.00">alr_mon</text>
</g>
<!-- McrAtr&#45;&gt;Atr -->
<g id="edge26" class="edge"><title>McrAtr&#45;&gt;Atr</title>
<path fill="none" stroke="#297cb6" d="M331.159,-167.615C351.924,-155.475 378.445,-139.971 398.481,-128.257"/>
<ellipse fill="none" stroke="#297cb6" cx="327.448" cy="-169.784" rx="4.00002" ry="4.00002"/>
<polygon fill="#297cb6" stroke="#297cb6" points="398.553,-128.215 409.458,-127.053 402.87,-125.691 407.186,-123.168 407.186,-123.168 407.186,-123.168 402.87,-125.691 404.915,-119.283 398.553,-128.215 398.553,-128.215"/>
</g>
<!-- McrAtr&#45;&gt;Alrt -->
<g id="edge24" class="edge"><title>McrAtr&#45;&gt;Alrt</title>
<path fill="none" stroke="#1b7493" d="M293.693,-160.202C288.733,-129.339 280.619,-78.851 275.556,-47.3482"/>
<ellipse fill="none" stroke="#1b7493" cx="294.373" cy="-164.43" rx="4.00001" ry="4.00001"/>
<polygon fill="#1b7493" stroke="#1b7493" points="275.552,-47.3215 278.408,-36.7341 274.758,-42.3848 273.965,-37.4482 273.965,-37.4482 273.965,-37.4482 274.758,-42.3848 269.522,-38.1623 275.552,-47.3215 275.552,-47.3215"/>
</g>
<!-- LaynetEle -->
<g id="node15" class="node"><title>LaynetEle</title>
<ellipse fill="none" stroke="black" cx="1025" cy="-298" rx="60.8112" ry="18.3848"/>
<text text-anchor="middle" x="1025" y="-294.4" font-family="Times Roman,serif" font-size="14.00">LaynetEle</text>
</g>
</g>
</svg>
