<?xml version="1.0" encoding="UTF-8" standalone="no"?>
<!DOCTYPE svg PUBLIC "-//W3C//DTD SVG 1.1//EN"
 "http://www.w3.org/Graphics/SVG/1.1/DTD/svg11.dtd">
<!-- Generated by graphviz version 2.26.3 (20100126.1600)
 -->
<!-- Title: models_diagram Pages: 1 -->
<svg width="924pt" height="1528pt"
 viewBox="0.00 0.00 924.00 1528.00" xmlns="http://www.w3.org/2000/svg" xmlns:xlink="http://www.w3.org/1999/xlink">
<g id="graph1" class="graph" transform="scale(1 1) rotate(0) translate(4 1524)">
<title>models_diagram</title>
<polygon fill="white" stroke="white" points="-4,5 -4,-1524 921,-1524 921,5 -4,5"/>
<!-- AlrMntrCntr -->
<g id="node1" class="node"><title>AlrMntrCntr</title>
<polyline fill="none" stroke="black" points="722,-462 904,-462 "/>
<path fill="none" stroke="black" d="M904,-462C910,-462 916,-468 916,-474"/>
<polyline fill="none" stroke="black" points="916,-474 916,-610 "/>
<path fill="none" stroke="black" d="M916,-610C916,-616 910,-622 904,-622"/>
<polyline fill="none" stroke="black" points="904,-622 722,-622 "/>
<path fill="none" stroke="black" d="M722,-622C716,-622 710,-616 710,-610"/>
<polyline fill="none" stroke="black" points="710,-610 710,-474 "/>
<path fill="none" stroke="black" d="M710,-474C710,-468 716,-462 722,-462"/>
<text text-anchor="middle" x="813" y="-605.4" font-family="Times Roman,serif" font-size="14.00">AlrMntrCntr</text>
<polyline fill="none" stroke="black" points="710,-596 916,-596 "/>
<text text-anchor="start" x="718" y="-579.4" font-family="Times Roman,serif" font-size="14.00">_id :Moped::BSON::ObjectId</text>
<text text-anchor="start" x="718" y="-561.4" font-family="Times Roman,serif" font-size="14.00">_type :String</text>
<text text-anchor="start" x="718" y="-543.4" font-family="Times Roman,serif" font-size="14.00">ctgry :String</text>
<text text-anchor="start" x="718" y="-525.4" font-family="Times Roman,serif" font-size="14.00">descr :String</text>
<text text-anchor="start" x="718" y="-507.4" font-family="Times Roman,serif" font-size="14.00">impact :String</text>
<text text-anchor="start" x="718" y="-489.4" font-family="Times Roman,serif" font-size="14.00">state :String</text>
<text text-anchor="start" x="718" y="-471.4" font-family="Times Roman,serif" font-size="14.00">value :Float</text>
</g>
<!-- Atr -->
<g id="node9" class="node"><title>Atr</title>
<polyline fill="none" stroke="black" points="498,-217 680,-217 "/>
<path fill="none" stroke="black" d="M680,-217C686,-217 692,-223 692,-229"/>
<polyline fill="none" stroke="black" points="692,-229 692,-401 "/>
<path fill="none" stroke="black" d="M692,-401C692,-407 686,-413 680,-413"/>
<polyline fill="none" stroke="black" points="680,-413 498,-413 "/>
<path fill="none" stroke="black" d="M498,-413C492,-413 486,-407 486,-401"/>
<polyline fill="none" stroke="black" points="486,-401 486,-229 "/>
<path fill="none" stroke="black" d="M486,-229C486,-223 492,-217 498,-217"/>
<text text-anchor="middle" x="589" y="-396.4" font-family="Times Roman,serif" font-size="14.00">Atr</text>
<polyline fill="none" stroke="black" points="486,-387 692,-387 "/>
<text text-anchor="start" x="494" y="-370.4" font-family="Times Roman,serif" font-size="14.00">_id :Moped::BSON::ObjectId</text>
<text text-anchor="start" x="494" y="-352.4" font-family="Times Roman,serif" font-size="14.00">desc :String</text>
<text text-anchor="start" x="494" y="-334.4" font-family="Times Roman,serif" font-size="14.00">mcr_atr_id :Object</text>
<text text-anchor="start" x="494" y="-316.4" font-family="Times Roman,serif" font-size="14.00">name :String</text>
<text text-anchor="start" x="494" y="-298.4" font-family="Times Roman,serif" font-size="14.00">rdbl :Boolean</text>
<text text-anchor="start" x="494" y="-280.4" font-family="Times Roman,serif" font-size="14.00">ref_prot :String</text>
<text text-anchor="start" x="494" y="-262.4" font-family="Times Roman,serif" font-size="14.00">tipo :String</text>
<text text-anchor="start" x="494" y="-244.4" font-family="Times Roman,serif" font-size="14.00">value :String</text>
<text text-anchor="start" x="494" y="-226.4" font-family="Times Roman,serif" font-size="14.00">wtbl :Boolean</text>
</g>
<!-- AlrMntrCntr&#45;&gt;Atr -->
<g id="edge2" class="edge"><title>AlrMntrCntr&#45;&gt;Atr</title>
<path fill="none" stroke="#b50924" d="M726.641,-454.484C715.545,-443.24 704.095,-431.637 692.758,-420.148"/>
<polygon fill="#b50924" stroke="#b50924" points="727.002,-454.85 730.823,-465.129 730.514,-458.409 734.026,-461.968 734.026,-461.968 734.026,-461.968 730.514,-458.409 737.229,-458.808 727.002,-454.85 727.002,-454.85"/>
<polygon fill="#b50924" stroke="#b50924" points="692.742,-420.131 688.921,-409.853 689.23,-416.572 685.718,-413.013 685.718,-413.013 685.718,-413.013 689.23,-416.572 682.515,-416.174 692.742,-420.131 692.742,-420.131"/>
</g>
<!-- Conn -->
<g id="node2" class="node"><title>Conn</title>
<polyline fill="none" stroke="black" points="143,-907 325,-907 "/>
<path fill="none" stroke="black" d="M325,-907C331,-907 337,-913 337,-919"/>
<polyline fill="none" stroke="black" points="337,-919 337,-983 "/>
<path fill="none" stroke="black" d="M337,-983C337,-989 331,-995 325,-995"/>
<polyline fill="none" stroke="black" points="325,-995 143,-995 "/>
<path fill="none" stroke="black" d="M143,-995C137,-995 131,-989 131,-983"/>
<polyline fill="none" stroke="black" points="131,-983 131,-919 "/>
<path fill="none" stroke="black" d="M131,-919C131,-913 137,-907 143,-907"/>
<text text-anchor="middle" x="234" y="-978.4" font-family="Times Roman,serif" font-size="14.00">Conn</text>
<polyline fill="none" stroke="black" points="131,-969 337,-969 "/>
<text text-anchor="start" x="139" y="-952.4" font-family="Times Roman,serif" font-size="14.00">_id :Moped::BSON::ObjectId</text>
<text text-anchor="start" x="139" y="-934.4" font-family="Times Roman,serif" font-size="14.00">ip :String</text>
<text text-anchor="start" x="139" y="-916.4" font-family="Times Roman,serif" font-size="14.00">port :Integer</text>
</g>
<!-- ManRsc -->
<g id="node6" class="node"><title>ManRsc</title>
<polyline fill="none" stroke="black" points="143,-671 325,-671 "/>
<path fill="none" stroke="black" d="M325,-671C331,-671 337,-677 337,-683"/>
<polyline fill="none" stroke="black" points="337,-683 337,-855 "/>
<path fill="none" stroke="black" d="M337,-855C337,-861 331,-867 325,-867"/>
<polyline fill="none" stroke="black" points="325,-867 143,-867 "/>
<path fill="none" stroke="black" d="M143,-867C137,-867 131,-861 131,-855"/>
<polyline fill="none" stroke="black" points="131,-855 131,-683 "/>
<path fill="none" stroke="black" d="M131,-683C131,-677 137,-671 143,-671"/>
<text text-anchor="middle" x="234" y="-850.4" font-family="Times Roman,serif" font-size="14.00">ManRsc</text>
<polyline fill="none" stroke="black" points="131,-841 337,-841 "/>
<text text-anchor="start" x="139" y="-824.4" font-family="Times Roman,serif" font-size="14.00">_id :Moped::BSON::ObjectId</text>
<text text-anchor="start" x="139" y="-806.4" font-family="Times Roman,serif" font-size="14.00">_type :String</text>
<text text-anchor="start" x="139" y="-788.4" font-family="Times Roman,serif" font-size="14.00">alrtbl :Boolean</text>
<text text-anchor="start" x="139" y="-770.4" font-family="Times Roman,serif" font-size="14.00">desc :String</text>
<text text-anchor="start" x="139" y="-752.4" font-family="Times Roman,serif" font-size="14.00">domain :String</text>
<text text-anchor="start" x="139" y="-734.4" font-family="Times Roman,serif" font-size="14.00">mngbl :Boolean</text>
<text text-anchor="start" x="139" y="-716.4" font-family="Times Roman,serif" font-size="14.00">name :String</text>
<text text-anchor="start" x="139" y="-698.4" font-family="Times Roman,serif" font-size="14.00">on :Boolean</text>
<text text-anchor="start" x="139" y="-680.4" font-family="Times Roman,serif" font-size="14.00">ref_prot :String</text>
</g>
<!-- Conn&#45;&gt;ManRsc -->
<g id="edge4" class="edge"><title>Conn&#45;&gt;ManRsc</title>
<path fill="none" stroke="#e2930e" d="M227.77,-896.915C227.58,-890.533 227.442,-883.86 227.356,-877.055"/>
<polygon fill="#e2930e" stroke="#e2930e" points="227.771,-896.949 223.625,-907.101 227.946,-901.946 228.122,-906.943 228.122,-906.943 228.122,-906.943 227.946,-901.946 232.619,-906.785 227.771,-896.949 227.771,-896.949"/>
<polygon fill="#e2930e" stroke="#e2930e" points="227.356,-877.008 231.768,-866.969 227.312,-872.009 227.268,-867.009 227.268,-867.009 227.268,-867.009 227.312,-872.009 222.768,-867.049 227.356,-877.008 227.356,-877.008"/>
</g>
<!-- AlrMntrRng -->
<g id="node3" class="node"><title>AlrMntrRng</title>
<polyline fill="none" stroke="black" points="498,-453 680,-453 "/>
<path fill="none" stroke="black" d="M680,-453C686,-453 692,-459 692,-465"/>
<polyline fill="none" stroke="black" points="692,-465 692,-619 "/>
<path fill="none" stroke="black" d="M692,-619C692,-625 686,-631 680,-631"/>
<polyline fill="none" stroke="black" points="680,-631 498,-631 "/>
<path fill="none" stroke="black" d="M498,-631C492,-631 486,-625 486,-619"/>
<polyline fill="none" stroke="black" points="486,-619 486,-465 "/>
<path fill="none" stroke="black" d="M486,-465C486,-459 492,-453 498,-453"/>
<text text-anchor="middle" x="589" y="-614.4" font-family="Times Roman,serif" font-size="14.00">AlrMntrRng</text>
<polyline fill="none" stroke="black" points="486,-605 692,-605 "/>
<text text-anchor="start" x="494" y="-588.4" font-family="Times Roman,serif" font-size="14.00">_id :Moped::BSON::ObjectId</text>
<text text-anchor="start" x="494" y="-570.4" font-family="Times Roman,serif" font-size="14.00">_type :String</text>
<text text-anchor="start" x="494" y="-552.4" font-family="Times Roman,serif" font-size="14.00">ctgry :String</text>
<text text-anchor="start" x="494" y="-534.4" font-family="Times Roman,serif" font-size="14.00">descr :String</text>
<text text-anchor="start" x="494" y="-516.4" font-family="Times Roman,serif" font-size="14.00">impact :String</text>
<text text-anchor="start" x="494" y="-498.4" font-family="Times Roman,serif" font-size="14.00">state :String</text>
<text text-anchor="start" x="494" y="-480.4" font-family="Times Roman,serif" font-size="14.00">value_down :Float</text>
<text text-anchor="start" x="494" y="-462.4" font-family="Times Roman,serif" font-size="14.00">value_up :Float</text>
</g>
<!-- AlrMntrRng&#45;&gt;Atr -->
<g id="edge6" class="edge"><title>AlrMntrRng&#45;&gt;Atr</title>
<path fill="none" stroke="#4029c8" d="M589,-442.77C589,-436.328 589,-429.824 589,-423.342"/>
<polygon fill="#4029c8" stroke="#4029c8" points="589,-442.935 584.5,-452.935 589,-447.935 589,-452.935 589,-452.935 589,-452.935 589,-447.935 593.5,-452.935 589,-442.935 589,-442.935"/>
<polygon fill="#4029c8" stroke="#4029c8" points="589,-423.187 593.5,-413.187 589,-418.187 589,-413.187 589,-413.187 589,-413.187 589,-418.187 584.5,-413.187 589,-423.187 589,-423.187"/>
</g>
<!-- Serv -->
<g id="node4" class="node"><title>Serv</title>
<polyline fill="none" stroke="black" points="12,-1035 194,-1035 "/>
<path fill="none" stroke="black" d="M194,-1035C200,-1035 206,-1041 206,-1047"/>
<polyline fill="none" stroke="black" points="206,-1047 206,-1255 "/>
<path fill="none" stroke="black" d="M206,-1255C206,-1261 200,-1267 194,-1267"/>
<polyline fill="none" stroke="black" points="194,-1267 12,-1267 "/>
<path fill="none" stroke="black" d="M12,-1267C6,-1267 0,-1261 0,-1255"/>
<polyline fill="none" stroke="black" points="0,-1255 0,-1047 "/>
<path fill="none" stroke="black" d="M0,-1047C0,-1041 6,-1035 12,-1035"/>
<text text-anchor="middle" x="103" y="-1250.4" font-family="Times Roman,serif" font-size="14.00">Serv</text>
<polyline fill="none" stroke="black" points="0,-1241 206,-1241 "/>
<text text-anchor="start" x="8" y="-1224.4" font-family="Times Roman,serif" font-size="14.00">_id :Moped::BSON::ObjectId</text>
<text text-anchor="start" x="8" y="-1206.4" font-family="Times Roman,serif" font-size="14.00">_type :String</text>
<text text-anchor="start" x="8" y="-1188.4" font-family="Times Roman,serif" font-size="14.00">active :Boolean</text>
<text text-anchor="start" x="8" y="-1170.4" font-family="Times Roman,serif" font-size="14.00">alrtbl :Boolean</text>
<text text-anchor="start" x="8" y="-1152.4" font-family="Times Roman,serif" font-size="14.00">desc :String</text>
<text text-anchor="start" x="8" y="-1134.4" font-family="Times Roman,serif" font-size="14.00">domain :String</text>
<text text-anchor="start" x="8" y="-1116.4" font-family="Times Roman,serif" font-size="14.00">mngbl :Boolean</text>
<text text-anchor="start" x="8" y="-1098.4" font-family="Times Roman,serif" font-size="14.00">mother_id :Object</text>
<text text-anchor="start" x="8" y="-1080.4" font-family="Times Roman,serif" font-size="14.00">name :String</text>
<text text-anchor="start" x="8" y="-1062.4" font-family="Times Roman,serif" font-size="14.00">on :Boolean</text>
<text text-anchor="start" x="8" y="-1044.4" font-family="Times Roman,serif" font-size="14.00">ref_prot :String</text>
</g>
<!-- Serv&#45;&gt;Conn -->
<g id="edge8" class="edge"><title>Serv&#45;&gt;Conn</title>
<path fill="none" stroke="#b30abe" d="M183.542,-1028.03C189.512,-1018.92 195.305,-1010.08 200.709,-1001.83"/>
<ellipse fill="none" stroke="#b30abe" cx="181.205" cy="-1031.6" rx="4.00002" ry="4.00002"/>
<ellipse fill="#b30abe" stroke="#b30abe" cx="202.96" cy="-998.39" rx="4.00002" ry="4.00002"/>
</g>
<!-- McrAtr -->
<g id="node13" class="node"><title>McrAtr</title>
<polyline fill="none" stroke="black" points="274,-471 456,-471 "/>
<path fill="none" stroke="black" d="M456,-471C462,-471 468,-477 468,-483"/>
<polyline fill="none" stroke="black" points="468,-483 468,-601 "/>
<path fill="none" stroke="black" d="M468,-601C468,-607 462,-613 456,-613"/>
<polyline fill="none" stroke="black" points="456,-613 274,-613 "/>
<path fill="none" stroke="black" d="M274,-613C268,-613 262,-607 262,-601"/>
<polyline fill="none" stroke="black" points="262,-601 262,-483 "/>
<path fill="none" stroke="black" d="M262,-483C262,-477 268,-471 274,-471"/>
<text text-anchor="middle" x="365" y="-596.4" font-family="Times Roman,serif" font-size="14.00">McrAtr</text>
<polyline fill="none" stroke="black" points="262,-587 468,-587 "/>
<text text-anchor="start" x="270" y="-570.4" font-family="Times Roman,serif" font-size="14.00">_id :Moped::BSON::ObjectId</text>
<text text-anchor="start" x="270" y="-552.4" font-family="Times Roman,serif" font-size="14.00">desc :String</text>
<text text-anchor="start" x="270" y="-534.4" font-family="Times Roman,serif" font-size="14.00">man_rsc_id :Object</text>
<text text-anchor="start" x="270" y="-516.4" font-family="Times Roman,serif" font-size="14.00">name :String</text>
<text text-anchor="start" x="270" y="-498.4" font-family="Times Roman,serif" font-size="14.00">ref_prot :String</text>
<text text-anchor="start" x="270" y="-480.4" font-family="Times Roman,serif" font-size="14.00">tipo :String</text>
</g>
<!-- Serv&#45;&gt;McrAtr -->
<g id="edge10" class="edge"><title>Serv&#45;&gt;McrAtr</title>
<path fill="none" stroke="#31a00a" d="M75.7426,-1026.87C60.1075,-923.357 55.0274,-776.178 122,-670 151.395,-623.398 203.763,-592.787 252.375,-573.226"/>
<ellipse fill="none" stroke="#31a00a" cx="76.3711" cy="-1030.91" rx="4.00001" ry="4.00001"/>
<polygon fill="#31a00a" stroke="#31a00a" points="252.404,-573.215 263.356,-573.773 257.062,-571.398 261.721,-569.58 261.721,-569.58 261.721,-569.58 257.062,-571.398 260.085,-565.388 252.404,-573.215 252.404,-573.215"/>
</g>
<!-- NetEle -->
<g id="node5" class="node"><title>NetEle</title>
<polyline fill="none" stroke="black" points="143,-1323 325,-1323 "/>
<path fill="none" stroke="black" d="M325,-1323C331,-1323 337,-1329 337,-1335"/>
<polyline fill="none" stroke="black" points="337,-1335 337,-1507 "/>
<path fill="none" stroke="black" d="M337,-1507C337,-1513 331,-1519 325,-1519"/>
<polyline fill="none" stroke="black" points="325,-1519 143,-1519 "/>
<path fill="none" stroke="black" d="M143,-1519C137,-1519 131,-1513 131,-1507"/>
<polyline fill="none" stroke="black" points="131,-1507 131,-1335 "/>
<path fill="none" stroke="black" d="M131,-1335C131,-1329 137,-1323 143,-1323"/>
<text text-anchor="middle" x="234" y="-1502.4" font-family="Times Roman,serif" font-size="14.00">NetEle</text>
<polyline fill="none" stroke="black" points="131,-1493 337,-1493 "/>
<text text-anchor="start" x="139" y="-1476.4" font-family="Times Roman,serif" font-size="14.00">_id :Moped::BSON::ObjectId</text>
<text text-anchor="start" x="139" y="-1458.4" font-family="Times Roman,serif" font-size="14.00">_type :String</text>
<text text-anchor="start" x="139" y="-1440.4" font-family="Times Roman,serif" font-size="14.00">alrtbl :Boolean</text>
<text text-anchor="start" x="139" y="-1422.4" font-family="Times Roman,serif" font-size="14.00">desc :String</text>
<text text-anchor="start" x="139" y="-1404.4" font-family="Times Roman,serif" font-size="14.00">domain :String</text>
<text text-anchor="start" x="139" y="-1386.4" font-family="Times Roman,serif" font-size="14.00">mngbl :Boolean</text>
<text text-anchor="start" x="139" y="-1368.4" font-family="Times Roman,serif" font-size="14.00">name :String</text>
<text text-anchor="start" x="139" y="-1350.4" font-family="Times Roman,serif" font-size="14.00">on :Boolean</text>
<text text-anchor="start" x="139" y="-1332.4" font-family="Times Roman,serif" font-size="14.00">ref_prot :String</text>
</g>
<!-- NetEle&#45;&gt;Conn -->
<g id="edge12" class="edge"><title>NetEle&#45;&gt;Conn</title>
<path fill="none" stroke="#0501ed" d="M234,-1314.68C234,-1217.74 234,-1078.56 234,-1003.6"/>
<ellipse fill="none" stroke="#0501ed" cx="234" cy="-1318.76" rx="4" ry="4"/>
<ellipse fill="#0501ed" stroke="#0501ed" cx="234" cy="-999.229" rx="4" ry="4"/>
</g>
<!-- NetEle&#45;&gt;Serv -->
<g id="edge16" class="edge"><title>NetEle&#45;&gt;Serv</title>
<path fill="none" stroke="#0557e2" d="M170.998,-1315.8C168.933,-1311.84 166.926,-1307.9 165,-1304 160.62,-1295.14 156.294,-1285.88 152.088,-1276.5"/>
<ellipse fill="none" stroke="#0557e2" cx="172.906" cy="-1319.41" rx="4.00002" ry="4.00002"/>
<polygon fill="#0557e2" stroke="#0557e2" points="151.971,-1276.24 152.039,-1265.27 149.948,-1271.67 147.924,-1267.09 147.924,-1267.09 147.924,-1267.09 149.948,-1271.67 143.809,-1268.92 151.971,-1276.24 151.971,-1276.24"/>
<text text-anchor="middle" x="192.5" y="-1291.4" font-family="Times Roman,serif" font-size="14.00">children</text>
</g>
<!-- NetEle&#45;&gt;McrAtr -->
<g id="edge14" class="edge"><title>NetEle&#45;&gt;McrAtr</title>
<path fill="none" stroke="#fd5d21" d="M344.049,-1323.23C344.699,-1322.81 345.35,-1322.41 346,-1322 399.442,-1288.69 437.874,-1317.35 477,-1268 509.731,-1226.72 496,-1203.68 496,-1151 496,-1151 496,-1151 496,-769 496,-715.038 467.886,-662.357 437.707,-621.35"/>
<ellipse fill="none" stroke="#fd5d21" cx="340.44" cy="-1325.59" rx="4.00002" ry="4.00002"/>
<polygon fill="#fd5d21" stroke="#fd5d21" points="437.666,-621.297 435.246,-610.601 434.659,-617.302 431.651,-613.308 431.651,-613.308 431.651,-613.308 434.659,-617.302 428.056,-616.015 437.666,-621.297 437.666,-621.297"/>
</g>
<!-- ManRsc&#45;&gt;Conn -->
<g id="edge18" class="edge"><title>ManRsc&#45;&gt;Conn</title>
<path fill="none" stroke="#bfbe36" d="M240.666,-875.163C240.575,-883.271 240.412,-891.215 240.174,-898.726"/>
<ellipse fill="none" stroke="#bfbe36" cx="240.7" cy="-871.009" rx="4" ry="4"/>
<ellipse fill="#bfbe36" stroke="#bfbe36" cx="240.022" cy="-902.945" rx="4" ry="4"/>
</g>
<!-- ManRsc&#45;&gt;McrAtr -->
<g id="edge20" class="edge"><title>ManRsc&#45;&gt;McrAtr</title>
<path fill="none" stroke="#f1e573" d="M294.911,-663.452C302.999,-649.436 311.182,-635.258 318.961,-621.778"/>
<ellipse fill="none" stroke="#f1e573" cx="292.696" cy="-667.29" rx="4.00002" ry="4.00002"/>
<polygon fill="#f1e573" stroke="#f1e573" points="319.011,-621.69 327.907,-615.278 321.511,-617.36 324.01,-613.029 324.01,-613.029 324.01,-613.029 321.511,-617.36 320.112,-610.78 319.011,-621.69 319.011,-621.69"/>
</g>
<!-- AlrMntrFrml -->
<g id="node7" class="node"><title>AlrMntrFrml</title>
<polyline fill="none" stroke="black" points="536,-689 718,-689 "/>
<path fill="none" stroke="black" d="M718,-689C724,-689 730,-695 730,-701"/>
<polyline fill="none" stroke="black" points="730,-701 730,-837 "/>
<path fill="none" stroke="black" d="M730,-837C730,-843 724,-849 718,-849"/>
<polyline fill="none" stroke="black" points="718,-849 536,-849 "/>
<path fill="none" stroke="black" d="M536,-849C530,-849 524,-843 524,-837"/>
<polyline fill="none" stroke="black" points="524,-837 524,-701 "/>
<path fill="none" stroke="black" d="M524,-701C524,-695 530,-689 536,-689"/>
<text text-anchor="middle" x="627" y="-832.4" font-family="Times Roman,serif" font-size="14.00">AlrMntrFrml</text>
<polyline fill="none" stroke="black" points="524,-823 730,-823 "/>
<text text-anchor="start" x="532" y="-806.4" font-family="Times Roman,serif" font-size="14.00">_id :Moped::BSON::ObjectId</text>
<text text-anchor="start" x="532" y="-788.4" font-family="Times Roman,serif" font-size="14.00">_type :String</text>
<text text-anchor="start" x="532" y="-770.4" font-family="Times Roman,serif" font-size="14.00">ctgry :String</text>
<text text-anchor="start" x="532" y="-752.4" font-family="Times Roman,serif" font-size="14.00">descr :String</text>
<text text-anchor="start" x="532" y="-734.4" font-family="Times Roman,serif" font-size="14.00">impact :String</text>
<text text-anchor="start" x="532" y="-716.4" font-family="Times Roman,serif" font-size="14.00">state :String</text>
<text text-anchor="start" x="532" y="-698.4" font-family="Times Roman,serif" font-size="14.00">value :String</text>
</g>
<!-- AlrMntrFrml&#45;&gt;McrAtr -->
<g id="edge22" class="edge"><title>AlrMntrFrml&#45;&gt;McrAtr</title>
<path fill="none" stroke="#013476" d="M547.448,-681.917C535.404,-670.597 522.734,-659.613 510,-650 496.666,-639.935 490.9,-641.269 477,-632 470.936,-627.956 464.797,-623.663 458.68,-619.23"/>
<polygon fill="#013476" stroke="#013476" points="547.631,-682.091 551.753,-692.253 551.246,-685.546 554.861,-689 554.861,-689 554.861,-689 551.246,-685.546 557.97,-685.746 547.631,-682.091 547.631,-682.091"/>
<polygon fill="#013476" stroke="#013476" points="458.415,-619.036 453.027,-609.485 454.388,-616.072 450.36,-613.109 450.36,-613.109 450.36,-613.109 454.388,-616.072 447.694,-616.734 458.415,-619.036 458.415,-619.036"/>
</g>
<!-- AlrMntr -->
<g id="node8" class="node"><title>AlrMntr</title>
<polyline fill="none" stroke="black" points="683,-10 865,-10 "/>
<path fill="none" stroke="black" d="M865,-10C871,-10 877,-16 877,-22"/>
<polyline fill="none" stroke="black" points="877,-22 877,-140 "/>
<path fill="none" stroke="black" d="M877,-140C877,-146 871,-152 865,-152"/>
<polyline fill="none" stroke="black" points="865,-152 683,-152 "/>
<path fill="none" stroke="black" d="M683,-152C677,-152 671,-146 671,-140"/>
<polyline fill="none" stroke="black" points="671,-140 671,-22 "/>
<path fill="none" stroke="black" d="M671,-22C671,-16 677,-10 683,-10"/>
<text text-anchor="middle" x="774" y="-135.4" font-family="Times Roman,serif" font-size="14.00">AlrMntr</text>
<polyline fill="none" stroke="black" points="671,-126 877,-126 "/>
<text text-anchor="start" x="679" y="-109.4" font-family="Times Roman,serif" font-size="14.00">_id :Moped::BSON::ObjectId</text>
<text text-anchor="start" x="679" y="-91.4" font-family="Times Roman,serif" font-size="14.00">_type :String</text>
<text text-anchor="start" x="679" y="-73.4" font-family="Times Roman,serif" font-size="14.00">ctgry :String</text>
<text text-anchor="start" x="679" y="-55.4" font-family="Times Roman,serif" font-size="14.00">descr :String</text>
<text text-anchor="start" x="679" y="-37.4" font-family="Times Roman,serif" font-size="14.00">impact :String</text>
<text text-anchor="start" x="679" y="-19.4" font-family="Times Roman,serif" font-size="14.00">state :String</text>
</g>
<!-- Atr&#45;&gt;AlrMntr -->
<g id="edge28" class="edge"><title>Atr&#45;&gt;AlrMntr</title>
<path fill="none" stroke="#0908c8" d="M671.682,-210.419C685.399,-193.069 699.407,-175.35 712.481,-158.813"/>
<ellipse fill="none" stroke="#0908c8" cx="669.133" cy="-213.642" rx="4.00002" ry="4.00002"/>
<ellipse fill="#0908c8" stroke="#0908c8" cx="715.155" cy="-155.431" rx="4.00002" ry="4.00002"/>
<text text-anchor="middle" x="722.5" y="-185.4" font-family="Times Roman,serif" font-size="14.00">qos_mon</text>
</g>
<!-- Atr&#45;&gt;AlrMntr -->
<g id="edge30" class="edge"><title>Atr&#45;&gt;AlrMntr</title>
<path fill="none" stroke="#3f75ad" d="M603.758,-209.145C608.164,-198.608 613.802,-188.635 621,-180 633.743,-164.714 644.729,-171.887 662,-162 665.13,-160.208 668.279,-158.347 671.434,-156.432"/>
<ellipse fill="none" stroke="#3f75ad" cx="602.203" cy="-213.175" rx="4.00001" ry="4.00001"/>
<ellipse fill="#3f75ad" stroke="#3f75ad" cx="674.942" cy="-154.262" rx="4.00002" ry="4.00002"/>
<text text-anchor="middle" x="649" y="-185.4" font-family="Times Roman,serif" font-size="14.00">alr_mon</text>
</g>
<!-- AtrHst -->
<g id="node10" class="node"><title>AtrHst</title>
<polyline fill="none" stroke="black" points="459,-28 641,-28 "/>
<path fill="none" stroke="black" d="M641,-28C647,-28 653,-34 653,-40"/>
<polyline fill="none" stroke="black" points="653,-40 653,-122 "/>
<path fill="none" stroke="black" d="M653,-122C653,-128 647,-134 641,-134"/>
<polyline fill="none" stroke="black" points="641,-134 459,-134 "/>
<path fill="none" stroke="black" d="M459,-134C453,-134 447,-128 447,-122"/>
<polyline fill="none" stroke="black" points="447,-122 447,-40 "/>
<path fill="none" stroke="black" d="M447,-40C447,-34 453,-28 459,-28"/>
<text text-anchor="middle" x="550" y="-117.4" font-family="Times Roman,serif" font-size="14.00">AtrHst</text>
<polyline fill="none" stroke="black" points="447,-108 653,-108 "/>
<text text-anchor="start" x="455" y="-91.4" font-family="Times Roman,serif" font-size="14.00">_id :Moped::BSON::ObjectId</text>
<text text-anchor="start" x="455" y="-73.4" font-family="Times Roman,serif" font-size="14.00">atr_id :Object</text>
<text text-anchor="start" x="455" y="-55.4" font-family="Times Roman,serif" font-size="14.00">tstamp :Integer</text>
<text text-anchor="start" x="455" y="-37.4" font-family="Times Roman,serif" font-size="14.00">value :String</text>
</g>
<!-- Atr&#45;&gt;AtrHst -->
<g id="edge26" class="edge"><title>Atr&#45;&gt;AtrHst</title>
<path fill="none" stroke="#994b95" d="M571.299,-208.796C567.635,-186.811 563.886,-164.314 560.574,-144.444"/>
<ellipse fill="none" stroke="#994b95" cx="571.972" cy="-212.834" rx="4.00001" ry="4.00001"/>
<polygon fill="#994b95" stroke="#994b95" points="560.529,-144.174 563.324,-133.57 559.707,-139.242 558.885,-134.31 558.885,-134.31 558.885,-134.31 559.707,-139.242 554.446,-135.05 560.529,-144.174 560.529,-144.174"/>
</g>
<!-- Alrt -->
<g id="node12" class="node"><title>Alrt</title>
<polyline fill="none" stroke="black" points="235,-1 417,-1 "/>
<path fill="none" stroke="black" d="M417,-1C423,-1 429,-7 429,-13"/>
<polyline fill="none" stroke="black" points="429,-13 429,-149 "/>
<path fill="none" stroke="black" d="M429,-149C429,-155 423,-161 417,-161"/>
<polyline fill="none" stroke="black" points="417,-161 235,-161 "/>
<path fill="none" stroke="black" d="M235,-161C229,-161 223,-155 223,-149"/>
<polyline fill="none" stroke="black" points="223,-149 223,-13 "/>
<path fill="none" stroke="black" d="M223,-13C223,-7 229,-1 235,-1"/>
<text text-anchor="middle" x="326" y="-144.4" font-family="Times Roman,serif" font-size="14.00">Alrt</text>
<polyline fill="none" stroke="black" points="223,-135 429,-135 "/>
<text text-anchor="start" x="231" y="-118.4" font-family="Times Roman,serif" font-size="14.00">_id :Moped::BSON::ObjectId</text>
<text text-anchor="start" x="231" y="-100.4" font-family="Times Roman,serif" font-size="14.00">atr_id :Object</text>
<text text-anchor="start" x="231" y="-82.4" font-family="Times Roman,serif" font-size="14.00">mcr_atr_id :Object</text>
<text text-anchor="start" x="231" y="-64.4" font-family="Times Roman,serif" font-size="14.00">msg :String</text>
<text text-anchor="start" x="231" y="-46.4" font-family="Times Roman,serif" font-size="14.00">tipo :String</text>
<text text-anchor="start" x="231" y="-28.4" font-family="Times Roman,serif" font-size="14.00">title :String</text>
<text text-anchor="start" x="231" y="-10.4" font-family="Times Roman,serif" font-size="14.00">tstamp :Integer</text>
</g>
<!-- Atr&#45;&gt;Alrt -->
<g id="edge24" class="edge"><title>Atr&#45;&gt;Alrt</title>
<path fill="none" stroke="#7cde63" d="M479.577,-217.643C461.085,-201.19 441.994,-184.204 423.823,-168.036"/>
<ellipse fill="none" stroke="#7cde63" cx="482.822" cy="-220.53" rx="4.00002" ry="4.00002"/>
<polygon fill="#7cde63" stroke="#7cde63" points="423.567,-167.808 419.087,-157.799 419.831,-164.485 416.096,-161.161 416.096,-161.161 416.096,-161.161 419.831,-164.485 413.105,-164.523 423.567,-167.808 423.567,-167.808"/>
</g>
<!-- Link -->
<g id="node11" class="node"><title>Link</title>
<polyline fill="none" stroke="black" points="367,-1368 549,-1368 "/>
<path fill="none" stroke="black" d="M549,-1368C555,-1368 561,-1374 561,-1380"/>
<polyline fill="none" stroke="black" points="561,-1380 561,-1462 "/>
<path fill="none" stroke="black" d="M561,-1462C561,-1468 555,-1474 549,-1474"/>
<polyline fill="none" stroke="black" points="549,-1474 367,-1474 "/>
<path fill="none" stroke="black" d="M367,-1474C361,-1474 355,-1468 355,-1462"/>
<polyline fill="none" stroke="black" points="355,-1462 355,-1380 "/>
<path fill="none" stroke="black" d="M355,-1380C355,-1374 361,-1368 367,-1368"/>
<text text-anchor="middle" x="458" y="-1457.4" font-family="Times Roman,serif" font-size="14.00">Link</text>
<polyline fill="none" stroke="black" points="355,-1448 561,-1448 "/>
<text text-anchor="start" x="363" y="-1431.4" font-family="Times Roman,serif" font-size="14.00">_id :Moped::BSON::ObjectId</text>
<text text-anchor="start" x="363" y="-1413.4" font-family="Times Roman,serif" font-size="14.00">desc :String</text>
<text text-anchor="start" x="363" y="-1395.4" font-family="Times Roman,serif" font-size="14.00">link_a :String</text>
<text text-anchor="start" x="363" y="-1377.4" font-family="Times Roman,serif" font-size="14.00">link_b :String</text>
</g>
<!-- McrAtr&#45;&gt;AlrMntr -->
<g id="edge36" class="edge"><title>McrAtr&#45;&gt;AlrMntr</title>
<path fill="none" stroke="#528e82" d="M368.68,-462.847C374.296,-377.945 388.079,-250.62 421,-216 496.64,-136.455 561.92,-207.087 662,-162 666.102,-160.152 670.204,-158.14 674.285,-155.998"/>
<ellipse fill="none" stroke="#528e82" cx="368.418" cy="-466.935" rx="4" ry="4"/>
<ellipse fill="#528e82" stroke="#528e82" cx="678.088" cy="-153.925" rx="4.00002" ry="4.00002"/>
<text text-anchor="middle" x="449" y="-311.4" font-family="Times Roman,serif" font-size="14.00">alr_mon</text>
</g>
<!-- McrAtr&#45;&gt;Atr -->
<g id="edge34" class="edge"><title>McrAtr&#45;&gt;Atr</title>
<path fill="none" stroke="#b0bd2c" d="M441.211,-464.768C455.219,-450.573 470.061,-435.532 484.725,-420.671"/>
<ellipse fill="none" stroke="#b0bd2c" cx="438.07" cy="-467.951" rx="4.00002" ry="4.00002"/>
<polygon fill="#b0bd2c" stroke="#b0bd2c" points="484.882,-420.513 495.109,-416.555 488.394,-416.954 491.906,-413.395 491.906,-413.395 491.906,-413.395 488.394,-416.954 488.703,-410.234 484.882,-420.513 484.882,-420.513"/>
</g>
<!-- McrAtr&#45;&gt;Alrt -->
<g id="edge32" class="edge"><title>McrAtr&#45;&gt;Alrt</title>
<path fill="none" stroke="#cdefd6" d="M358.314,-462.972C351.458,-381.924 340.808,-256.04 333.627,-171.156"/>
<ellipse fill="none" stroke="#cdefd6" cx="358.654" cy="-466.993" rx="4" ry="4"/>
<polygon fill="#cdefd6" stroke="#cdefd6" points="333.612,-170.978 337.253,-160.634 333.191,-165.995 332.769,-161.013 332.769,-161.013 332.769,-161.013 333.191,-165.995 328.285,-161.393 333.612,-170.978 333.612,-170.978"/>
</g>
<!-- LaynetEle -->
<g id="node14" class="node"><title>LaynetEle</title>
<polyline fill="none" stroke="black" points="274,-1053 456,-1053 "/>
<path fill="none" stroke="black" d="M456,-1053C462,-1053 468,-1059 468,-1065"/>
<polyline fill="none" stroke="black" points="468,-1065 468,-1237 "/>
<path fill="none" stroke="black" d="M468,-1237C468,-1243 462,-1249 456,-1249"/>
<polyline fill="none" stroke="black" points="456,-1249 274,-1249 "/>
<path fill="none" stroke="black" d="M274,-1249C268,-1249 262,-1243 262,-1237"/>
<polyline fill="none" stroke="black" points="262,-1237 262,-1065 "/>
<path fill="none" stroke="black" d="M262,-1065C262,-1059 268,-1053 274,-1053"/>
<text text-anchor="middle" x="365" y="-1232.4" font-family="Times Roman,serif" font-size="14.00">LaynetEle</text>
<polyline fill="none" stroke="black" points="262,-1223 468,-1223 "/>
<text text-anchor="start" x="270" y="-1206.4" font-family="Times Roman,serif" font-size="14.00">_id :Moped::BSON::ObjectId</text>
<text text-anchor="start" x="270" y="-1188.4" font-family="Times Roman,serif" font-size="14.00">_type :String</text>
<text text-anchor="start" x="270" y="-1170.4" font-family="Times Roman,serif" font-size="14.00">alrtbl :Boolean</text>
<text text-anchor="start" x="270" y="-1152.4" font-family="Times Roman,serif" font-size="14.00">desc :String</text>
<text text-anchor="start" x="270" y="-1134.4" font-family="Times Roman,serif" font-size="14.00">domain :String</text>
<text text-anchor="start" x="270" y="-1116.4" font-family="Times Roman,serif" font-size="14.00">mngbl :Boolean</text>
<text text-anchor="start" x="270" y="-1098.4" font-family="Times Roman,serif" font-size="14.00">name :String</text>
<text text-anchor="start" x="270" y="-1080.4" font-family="Times Roman,serif" font-size="14.00">on :Boolean</text>
<text text-anchor="start" x="270" y="-1062.4" font-family="Times Roman,serif" font-size="14.00">ref_prot :String</text>
</g>
<!-- LaynetEle&#45;&gt;Conn -->
<g id="edge38" class="edge"><title>LaynetEle&#45;&gt;Conn</title>
<path fill="none" stroke="#79bcbc" d="M295.989,-1045.64C286.028,-1030.43 276.176,-1015.39 267.358,-1001.93"/>
<ellipse fill="none" stroke="#79bcbc" cx="298.46" cy="-1049.41" rx="4.00002" ry="4.00002"/>
<ellipse fill="#79bcbc" stroke="#79bcbc" cx="265.037" cy="-998.385" rx="4.00002" ry="4.00002"/>
</g>
<!-- LaynetEle&#45;&gt;McrAtr -->
<g id="edge40" class="edge"><title>LaynetEle&#45;&gt;McrAtr</title>
<path fill="none" stroke="#414881" d="M365,-1044.77C365,-924.837 365,-732.291 365,-623.582"/>
<ellipse fill="none" stroke="#414881" cx="365" cy="-1048.82" rx="4" ry="4"/>
<polygon fill="#414881" stroke="#414881" points="365,-623.329 369.5,-613.329 365,-618.329 365,-613.329 365,-613.329 365,-613.329 365,-618.329 360.5,-613.329 365,-623.329 365,-623.329"/>
</g>
</g>
</svg>
